<mxfile host="drawio-plugin" modified="2023-12-03T07:46:47.680Z" agent="5.0 (Windows NT 6.2; Win64; x64) AppleWebKit/537.36 (KHTML, like Gecko) Chrome/104.0.5112.102 Safari/537.36" etag="e6st-VYtw2I4njNJGllP" version="20.5.3" type="embed" pages="9"><diagram id="VllBu0nG6JuYv7hxTFi7" name="生产事故处理"><mxGraphModel dx="653" dy="523" grid="1" gridSize="10" guides="1" tooltips="1" connect="1" arrows="1" fold="1" page="1" pageScale="1" pageWidth="827" pageHeight="1169" math="0" shadow="0"><root><mxCell id="0"/><mxCell id="1" parent="0"/><mxCell id="Nj8rCaDFp_ho2In1aW8e-1" value="" style="edgeStyle=orthogonalEdgeStyle;rounded=0;orthogonalLoop=1;jettySize=auto;html=1;" parent="1" source="Nj8rCaDFp_ho2In1aW8e-2" target="Nj8rCaDFp_ho2In1aW8e-7" edge="1"><mxGeometry relative="1" as="geometry"/></mxCell><mxCell id="Nj8rCaDFp_ho2In1aW8e-2" value="top查看系统负载(CPU与内存情况)" style="rounded=1;whiteSpace=wrap;html=1;fillColor=#dae8fc;strokeColor=#6c8ebf;" parent="1" vertex="1"><mxGeometry x="280" y="20" width="120" height="40" as="geometry"/></mxCell><mxCell id="Nj8rCaDFp_ho2In1aW8e-3" value="" style="edgeStyle=orthogonalEdgeStyle;rounded=0;orthogonalLoop=1;jettySize=auto;html=1;" parent="1" source="Nj8rCaDFp_ho2In1aW8e-7" target="Nj8rCaDFp_ho2In1aW8e-9" edge="1"><mxGeometry relative="1" as="geometry"/></mxCell><mxCell id="Nj8rCaDFp_ho2In1aW8e-4" style="edgeStyle=orthogonalEdgeStyle;rounded=0;orthogonalLoop=1;jettySize=auto;html=1;entryX=0.5;entryY=0;entryDx=0;entryDy=0;" parent="1" source="Nj8rCaDFp_ho2In1aW8e-7" target="Nj8rCaDFp_ho2In1aW8e-12" edge="1"><mxGeometry relative="1" as="geometry"/></mxCell><mxCell id="Nj8rCaDFp_ho2In1aW8e-5" value="&lt;span style=&quot;font-size: 12px; background-color: rgb(251, 251, 251);&quot;&gt;发现某个VM线程pid的CPU内存负载高&lt;/span&gt;" style="edgeLabel;html=1;align=center;verticalAlign=middle;resizable=0;points=[];" parent="Nj8rCaDFp_ho2In1aW8e-4" vertex="1" connectable="0"><mxGeometry x="0.3871" y="-2" relative="1" as="geometry"><mxPoint x="2" y="-22" as="offset"/></mxGeometry></mxCell><mxCell id="Nj8rCaDFp_ho2In1aW8e-6" value="" style="edgeStyle=orthogonalEdgeStyle;rounded=0;orthogonalLoop=1;jettySize=auto;html=1;" parent="1" source="Nj8rCaDFp_ho2In1aW8e-7" target="Nj8rCaDFp_ho2In1aW8e-16" edge="1"><mxGeometry relative="1" as="geometry"/></mxCell><mxCell id="Nj8rCaDFp_ho2In1aW8e-7" value="top -Hp pid(查看pid进程下各个线程资源使用情况)" style="whiteSpace=wrap;html=1;rounded=1;fillColor=#dae8fc;strokeColor=#6c8ebf;" parent="1" vertex="1"><mxGeometry x="280" y="130" width="120" height="60" as="geometry"/></mxCell><mxCell id="Nj8rCaDFp_ho2In1aW8e-8" value="发现某个进程pid的CPU内存负载高" style="text;html=1;align=center;verticalAlign=middle;resizable=0;points=[];autosize=1;strokeColor=none;fillColor=none;" parent="1" vertex="1"><mxGeometry x="225" y="75" width="210" height="30" as="geometry"/></mxCell><mxCell id="Nj8rCaDFp_ho2In1aW8e-9" value="thread dump:&lt;br&gt;jstack pid[进程号,10进制] | grep pid[线程号,16进制,需要我们手动将10进制转成16进制)" style="whiteSpace=wrap;html=1;rounded=1;fillColor=#dae8fc;strokeColor=#6c8ebf;" parent="1" vertex="1"><mxGeometry x="540" y="250" width="170" height="70" as="geometry"/></mxCell><mxCell id="Nj8rCaDFp_ho2In1aW8e-10" value="发现某个java用户线程pid的CPU内存负载高" style="text;html=1;align=center;verticalAlign=middle;resizable=0;points=[];autosize=1;strokeColor=none;fillColor=none;" parent="1" vertex="1"><mxGeometry x="490" y="190" width="250" height="30" as="geometry"/></mxCell><mxCell id="Nj8rCaDFp_ho2In1aW8e-11" value="" style="edgeStyle=orthogonalEdgeStyle;rounded=0;orthogonalLoop=1;jettySize=auto;html=1;" parent="1" source="Nj8rCaDFp_ho2In1aW8e-12" target="Nj8rCaDFp_ho2In1aW8e-14" edge="1"><mxGeometry relative="1" as="geometry"/></mxCell><mxCell id="Nj8rCaDFp_ho2In1aW8e-12" value="jstat -gcutil 1913 2000 10: jvm状态 - -pid-时间频率-次数" style="rounded=1;whiteSpace=wrap;html=1;fillColor=#dae8fc;strokeColor=#6c8ebf;" parent="1" vertex="1"><mxGeometry x="260" y="250" width="160" height="60" as="geometry"/></mxCell><mxCell id="Nj8rCaDFp_ho2In1aW8e-13" value="" style="edgeStyle=orthogonalEdgeStyle;rounded=0;orthogonalLoop=1;jettySize=auto;html=1;" parent="1" source="Nj8rCaDFp_ho2In1aW8e-14" target="Nj8rCaDFp_ho2In1aW8e-15" edge="1"><mxGeometry relative="1" as="geometry"/></mxCell><mxCell id="Nj8rCaDFp_ho2In1aW8e-14" value="jmap -histo:live 8 | more: 在线查看某个java进程的堆内存实例对象大小和数量" style="rounded=1;whiteSpace=wrap;html=1;fillColor=#dae8fc;strokeColor=#6c8ebf;" parent="1" vertex="1"><mxGeometry x="260" y="400" width="160" height="60" as="geometry"/></mxCell><mxCell id="Nj8rCaDFp_ho2In1aW8e-15" value="jmap -dump:format=b,file=dump.dat 8:&lt;br&gt;对快照, 文件类型,格式,pid" style="rounded=1;whiteSpace=wrap;html=1;fillColor=#dae8fc;strokeColor=#6c8ebf;" parent="1" vertex="1"><mxGeometry x="235" y="530" width="210" height="55" as="geometry"/></mxCell><mxCell id="Nj8rCaDFp_ho2In1aW8e-16" value="thread dump:&lt;br&gt;磁盘io/网络IO阻塞,代码阻塞,死锁操作" style="whiteSpace=wrap;html=1;fillColor=#dae8fc;strokeColor=#6c8ebf;rounded=1;" parent="1" vertex="1"><mxGeometry x="30" y="250" width="120" height="60" as="geometry"/></mxCell><mxCell id="Nj8rCaDFp_ho2In1aW8e-17" value="CPU负载,IO负载都正常" style="text;html=1;align=center;verticalAlign=middle;resizable=0;points=[];autosize=1;strokeColor=none;fillColor=none;" parent="1" vertex="1"><mxGeometry x="30" y="175" width="150" height="30" as="geometry"/></mxCell><mxCell id="Nj8rCaDFp_ho2In1aW8e-18" style="edgeStyle=orthogonalEdgeStyle;rounded=0;orthogonalLoop=1;jettySize=auto;html=1;startArrow=none;" parent="1" source="Nj8rCaDFp_ho2In1aW8e-22" edge="1"><mxGeometry relative="1" as="geometry"><mxPoint x="450" y="750" as="targetPoint"/></mxGeometry></mxCell><mxCell id="Nj8rCaDFp_ho2In1aW8e-19" value="" style="edgeStyle=orthogonalEdgeStyle;rounded=0;orthogonalLoop=1;jettySize=auto;html=1;" parent="1" source="Nj8rCaDFp_ho2In1aW8e-20" target="Nj8rCaDFp_ho2In1aW8e-24" edge="1"><mxGeometry relative="1" as="geometry"/></mxCell><mxCell id="Nj8rCaDFp_ho2In1aW8e-20" value="FullGC:" style="rounded=1;whiteSpace=wrap;html=1;fillColor=#dae8fc;strokeColor=#6c8ebf;" parent="1" vertex="1"><mxGeometry x="160" y="720" width="120" height="60" as="geometry"/></mxCell><mxCell id="Nj8rCaDFp_ho2In1aW8e-21" value="&lt;div&gt;1.代码中一次加载了大量的对象(系统启动,读取大文件)，导致内存溢出(也可能是初始堆大小太小导致频繁的扩容)。&lt;/div&gt;&lt;div&gt;2.内存占用不高，但是 Full GC 次数还是比较多，此时可能是显示的 System.gc() 调用导致 GC 次数过多，这可以通过添加 -XX:+DisableExplicitGC 来禁用 JVM 对显示 GC 的响应。&lt;/div&gt;&lt;div&gt;3.jvm的永久代空间不足;&lt;/div&gt;&lt;div&gt;4.代码bug, 存在太多的无引用对象来不及回收[死循环]&lt;/div&gt;" style="whiteSpace=wrap;html=1;rounded=1;fillColor=#dae8fc;strokeColor=#6c8ebf;" parent="1" vertex="1"><mxGeometry x="452.5" y="690" width="325" height="120" as="geometry"/></mxCell><mxCell id="Nj8rCaDFp_ho2In1aW8e-22" value="&lt;span style=&quot;&quot;&gt;原因&lt;/span&gt;" style="text;html=1;align=center;verticalAlign=middle;resizable=0;points=[];autosize=1;strokeColor=none;fillColor=none;" parent="1" vertex="1"><mxGeometry x="340" y="735" width="50" height="30" as="geometry"/></mxCell><mxCell id="Nj8rCaDFp_ho2In1aW8e-23" value="" style="edgeStyle=orthogonalEdgeStyle;rounded=0;orthogonalLoop=1;jettySize=auto;html=1;endArrow=none;" parent="1" source="Nj8rCaDFp_ho2In1aW8e-20" target="Nj8rCaDFp_ho2In1aW8e-22" edge="1"><mxGeometry relative="1" as="geometry"><mxPoint x="450" y="750" as="targetPoint"/><mxPoint x="280" y="750" as="sourcePoint"/></mxGeometry></mxCell><mxCell id="Nj8rCaDFp_ho2In1aW8e-24" value="1. 减少GC次数;&lt;br&gt;2. 减少GC时间;" style="whiteSpace=wrap;html=1;fillColor=#dae8fc;strokeColor=#6c8ebf;rounded=1;" parent="1" vertex="1"><mxGeometry x="160" y="860" width="120" height="60" as="geometry"/></mxCell><mxCell id="Nj8rCaDFp_ho2In1aW8e-25" value="解决方向" style="text;html=1;align=center;verticalAlign=middle;resizable=0;points=[];autosize=1;strokeColor=none;fillColor=none;" parent="1" vertex="1"><mxGeometry x="185" y="805" width="70" height="30" as="geometry"/></mxCell></root></mxGraphModel></diagram><diagram id="jK9hrduqYZg6kBpBQFdR" name="GOF"><mxGraphModel dx="1022" dy="600" grid="1" gridSize="10" guides="1" tooltips="1" connect="1" arrows="1" fold="1" page="1" pageScale="1" pageWidth="827" pageHeight="1169" math="0" shadow="0"><root><mxCell id="0"/><mxCell id="1" parent="0"/><mxCell id="fqE2fjEvUexsCizCm1Y6-17" value="代理模式" style="rounded=1;whiteSpace=wrap;html=1;fillColor=#f5f5f5;gradientColor=#b3b3b3;strokeColor=#666666;" parent="1" vertex="1"><mxGeometry y="440" width="80" height="40" as="geometry"/></mxCell><mxCell id="fqE2fjEvUexsCizCm1Y6-18" value="委派模式: 是一种特殊的静态代理,它强调的是任务的委派,它即不强调对任务本身的增强,也不强调对任务本身的保证;" style="rounded=1;whiteSpace=wrap;html=1;fillColor=#f5f5f5;gradientColor=#b3b3b3;strokeColor=#666666;" parent="1" vertex="1"><mxGeometry y="480" width="210" height="60" as="geometry"/></mxCell><mxCell id="fqE2fjEvUexsCizCm1Y6-19" value="门面模式:是一种特殊的静态代理,它强调的是封/包装, 而静态代理抢到的是增强,不做增强的静态代理就是门面模式;" style="rounded=1;whiteSpace=wrap;html=1;fillColor=#f5f5f5;gradientColor=#b3b3b3;strokeColor=#666666;" parent="1" vertex="1"><mxGeometry y="540" width="210" height="60" as="geometry"/></mxCell><mxCell id="fqE2fjEvUexsCizCm1Y6-20" value="模板模式" style="whiteSpace=wrap;html=1;fillColor=#f5f5f5;strokeColor=#666666;rounded=1;gradientColor=#b3b3b3;" parent="1" vertex="1"><mxGeometry x="507" y="440" width="80" height="40" as="geometry"/></mxCell><mxCell id="fqE2fjEvUexsCizCm1Y6-22" value="责任链模式" style="whiteSpace=wrap;html=1;fillColor=#f5f5f5;strokeColor=#666666;rounded=1;gradientColor=#b3b3b3;" parent="1" vertex="1"><mxGeometry x="400" y="440" width="80" height="40" as="geometry"/></mxCell><mxCell id="fqE2fjEvUexsCizCm1Y6-24" value="迭代器模式" style="whiteSpace=wrap;html=1;fillColor=#f5f5f5;strokeColor=#666666;rounded=1;gradientColor=#b3b3b3;" parent="1" vertex="1"><mxGeometry x="747" y="480" width="80" height="40" as="geometry"/></mxCell><mxCell id="fqE2fjEvUexsCizCm1Y6-25" value="观察者模式" style="whiteSpace=wrap;html=1;fillColor=#f5f5f5;strokeColor=#666666;rounded=1;gradientColor=#b3b3b3;" parent="1" vertex="1"><mxGeometry x="747" y="520" width="80" height="40" as="geometry"/></mxCell><mxCell id="fqE2fjEvUexsCizCm1Y6-30" value="策略模式" style="whiteSpace=wrap;html=1;fillColor=#f5f5f5;strokeColor=#666666;rounded=1;gradientColor=#b3b3b3;" parent="1" vertex="1"><mxGeometry x="507" y="480" width="80" height="40" as="geometry"/></mxCell><mxCell id="pHxvyqUWzyE4YV_-7IBb-1" value="建造者模式" style="whiteSpace=wrap;html=1;fillColor=#f5f5f5;strokeColor=#666666;rounded=1;gradientColor=#b3b3b3;" parent="1" vertex="1"><mxGeometry x="400" y="480" width="80" height="40" as="geometry"/></mxCell><mxCell id="pHxvyqUWzyE4YV_-7IBb-2" value="装饰器模式" style="whiteSpace=wrap;html=1;fillColor=#f5f5f5;strokeColor=#666666;rounded=1;gradientColor=#b3b3b3;" parent="1" vertex="1"><mxGeometry y="600" width="80" height="40" as="geometry"/></mxCell><mxCell id="pHxvyqUWzyE4YV_-7IBb-3" value="适配器模式" style="whiteSpace=wrap;html=1;fillColor=#f5f5f5;strokeColor=#666666;rounded=1;gradientColor=#b3b3b3;" parent="1" vertex="1"><mxGeometry x="747" y="440" width="80" height="40" as="geometry"/></mxCell><mxCell id="pHxvyqUWzyE4YV_-7IBb-4" value="类与类的组合关系: 比如最经典的是内部类,内部类可以访问外部类" style="rounded=1;whiteSpace=wrap;html=1;fillColor=#f5f5f5;gradientColor=#b3b3b3;strokeColor=#666666;" parent="1" vertex="1"><mxGeometry x="40" y="280" width="230" height="50" as="geometry"/></mxCell><mxCell id="9QGXZ4JDGw8U2SlMIaSe-1" value="享元模式" style="whiteSpace=wrap;html=1;fillColor=#f5f5f5;strokeColor=#666666;rounded=1;gradientColor=#b3b3b3;" parent="1" vertex="1"><mxGeometry x="235" y="440" width="80" height="40" as="geometry"/></mxCell><mxCell id="9QGXZ4JDGw8U2SlMIaSe-2" value="组合模式" style="whiteSpace=wrap;html=1;fillColor=#f5f5f5;strokeColor=#666666;rounded=1;gradientColor=#b3b3b3;" parent="1" vertex="1"><mxGeometry x="435" y="720" width="80" height="40" as="geometry"/></mxCell><mxCell id="ZArLYggZf5M8YrN2OTId-1" value="原型模式" style="whiteSpace=wrap;html=1;fillColor=#f5f5f5;strokeColor=#666666;rounded=1;gradientColor=#b3b3b3;" parent="1" vertex="1"><mxGeometry x="637" y="480" width="80" height="40" as="geometry"/></mxCell><mxCell id="ZArLYggZf5M8YrN2OTId-2" value="单例模式" style="whiteSpace=wrap;html=1;fillColor=#f5f5f5;strokeColor=#666666;rounded=1;gradientColor=#b3b3b3;" parent="1" vertex="1"><mxGeometry x="637" y="440" width="80" height="40" as="geometry"/></mxCell><mxCell id="ZArLYggZf5M8YrN2OTId-3" value="工厂模式" style="whiteSpace=wrap;html=1;fillColor=#f5f5f5;strokeColor=#666666;rounded=1;gradientColor=#b3b3b3;" parent="1" vertex="1"><mxGeometry x="235" y="480" width="80" height="40" as="geometry"/></mxCell><mxCell id="ZArLYggZf5M8YrN2OTId-4" value="抽象工厂模式" style="whiteSpace=wrap;html=1;fillColor=#f5f5f5;strokeColor=#666666;rounded=1;gradientColor=#b3b3b3;" parent="1" vertex="1"><mxGeometry x="235" y="520" width="80" height="40" as="geometry"/></mxCell><mxCell id="ZArLYggZf5M8YrN2OTId-5" value="状态模式" style="whiteSpace=wrap;html=1;fillColor=#f5f5f5;strokeColor=#666666;rounded=1;gradientColor=#b3b3b3;" parent="1" vertex="1"><mxGeometry x="590" y="800" width="80" height="40" as="geometry"/></mxCell><mxCell id="ZArLYggZf5M8YrN2OTId-6" value="中介者模式" style="whiteSpace=wrap;html=1;fillColor=#f5f5f5;strokeColor=#666666;rounded=1;gradientColor=#b3b3b3;" parent="1" vertex="1"><mxGeometry x="590" y="720" width="80" height="40" as="geometry"/></mxCell><mxCell id="ZArLYggZf5M8YrN2OTId-7" value="备忘录模式" style="whiteSpace=wrap;html=1;fillColor=#f5f5f5;strokeColor=#666666;rounded=1;gradientColor=#b3b3b3;" parent="1" vertex="1"><mxGeometry x="590" y="760" width="80" height="40" as="geometry"/></mxCell><mxCell id="ZArLYggZf5M8YrN2OTId-8" value="桥接模式" style="whiteSpace=wrap;html=1;fillColor=#f5f5f5;strokeColor=#666666;rounded=1;gradientColor=#b3b3b3;" parent="1" vertex="1"><mxGeometry x="435" y="760" width="80" height="40" as="geometry"/></mxCell></root></mxGraphModel></diagram><diagram id="5rYVCzJzMBZqMW06Nu4e" name="Tomcat8.5"><mxGraphModel dx="1036" dy="615" grid="1" gridSize="10" guides="1" tooltips="1" connect="1" arrows="1" fold="1" page="1" pageScale="1" pageWidth="827" pageHeight="1169" math="0" shadow="0"><root><mxCell id="0"/><mxCell id="1" parent="0"/></root></mxGraphModel></diagram><diagram id="pOMVWmuOpQDHzzbwXq02" name="xxl-job"><mxGraphModel dx="1022" dy="600" grid="1" gridSize="10" guides="1" tooltips="1" connect="1" arrows="1" fold="1" page="1" pageScale="1" pageWidth="827" pageHeight="1169" math="0" shadow="0"><root><mxCell id="0"/><mxCell id="1" parent="0"/><mxCell id="wLvtfyZSa0Nke1wQCWzJ-1" style="edgeStyle=orthogonalEdgeStyle;rounded=0;orthogonalLoop=1;jettySize=auto;html=1;entryX=0;entryY=0.5;entryDx=0;entryDy=0;" parent="1" source="wLvtfyZSa0Nke1wQCWzJ-7" target="wLvtfyZSa0Nke1wQCWzJ-18" edge="1"><mxGeometry relative="1" as="geometry"/></mxCell><mxCell id="wLvtfyZSa0Nke1wQCWzJ-2" style="edgeStyle=orthogonalEdgeStyle;rounded=0;orthogonalLoop=1;jettySize=auto;html=1;entryX=0;entryY=0.5;entryDx=0;entryDy=0;" parent="1" source="wLvtfyZSa0Nke1wQCWzJ-7" target="wLvtfyZSa0Nke1wQCWzJ-15" edge="1"><mxGeometry relative="1" as="geometry"/></mxCell><mxCell id="wLvtfyZSa0Nke1wQCWzJ-3" style="edgeStyle=orthogonalEdgeStyle;rounded=0;orthogonalLoop=1;jettySize=auto;html=1;entryX=0;entryY=0.5;entryDx=0;entryDy=0;" parent="1" source="wLvtfyZSa0Nke1wQCWzJ-7" target="wLvtfyZSa0Nke1wQCWzJ-10" edge="1"><mxGeometry relative="1" as="geometry"/></mxCell><mxCell id="wLvtfyZSa0Nke1wQCWzJ-4" style="edgeStyle=orthogonalEdgeStyle;rounded=0;orthogonalLoop=1;jettySize=auto;html=1;entryX=0;entryY=0.5;entryDx=0;entryDy=0;" parent="1" source="wLvtfyZSa0Nke1wQCWzJ-7" target="wLvtfyZSa0Nke1wQCWzJ-21" edge="1"><mxGeometry relative="1" as="geometry"/></mxCell><mxCell id="wLvtfyZSa0Nke1wQCWzJ-5" style="edgeStyle=orthogonalEdgeStyle;rounded=0;orthogonalLoop=1;jettySize=auto;html=1;entryX=0;entryY=0.5;entryDx=0;entryDy=0;" parent="1" source="wLvtfyZSa0Nke1wQCWzJ-7" target="wLvtfyZSa0Nke1wQCWzJ-26" edge="1"><mxGeometry relative="1" as="geometry"/></mxCell><mxCell id="wLvtfyZSa0Nke1wQCWzJ-6" style="edgeStyle=orthogonalEdgeStyle;rounded=0;orthogonalLoop=1;jettySize=auto;html=1;entryX=0;entryY=0.5;entryDx=0;entryDy=0;" parent="1" source="wLvtfyZSa0Nke1wQCWzJ-7" target="wLvtfyZSa0Nke1wQCWzJ-31" edge="1"><mxGeometry relative="1" as="geometry"/></mxCell><mxCell id="wLvtfyZSa0Nke1wQCWzJ-7" value="XXL-JOB调度中心启动" style="rounded=1;whiteSpace=wrap;html=1;fillColor=#d5e8d4;strokeColor=#82b366;" parent="1" vertex="1"><mxGeometry x="60" y="150" width="140" height="60" as="geometry"/></mxCell><mxCell id="wLvtfyZSa0Nke1wQCWzJ-8" style="edgeStyle=orthogonalEdgeStyle;rounded=0;orthogonalLoop=1;jettySize=auto;html=1;entryX=0;entryY=0.5;entryDx=0;entryDy=0;" parent="1" source="wLvtfyZSa0Nke1wQCWzJ-10" target="wLvtfyZSa0Nke1wQCWzJ-11" edge="1"><mxGeometry relative="1" as="geometry"/></mxCell><mxCell id="wLvtfyZSa0Nke1wQCWzJ-9" style="edgeStyle=orthogonalEdgeStyle;rounded=0;orthogonalLoop=1;jettySize=auto;html=1;entryX=0;entryY=0.5;entryDx=0;entryDy=0;" parent="1" source="wLvtfyZSa0Nke1wQCWzJ-10" target="wLvtfyZSa0Nke1wQCWzJ-12" edge="1"><mxGeometry relative="1" as="geometry"/></mxCell><mxCell id="wLvtfyZSa0Nke1wQCWzJ-10" value="1.实例化任务触发线程池" style="rounded=1;whiteSpace=wrap;html=1;fillColor=#d5e8d4;strokeColor=#82b366;" parent="1" vertex="1"><mxGeometry x="240" y="40" width="130" height="40" as="geometry"/></mxCell><mxCell id="wLvtfyZSa0Nke1wQCWzJ-11" value="fast线程池;&lt;span style=&quot;color: rgb(102, 14, 122); font-weight: bold; background-color: rgb(199, 237, 204); font-family: Consolas; font-size: 9pt;&quot;&gt;fastTriggerPool&lt;/span&gt;" style="rounded=1;whiteSpace=wrap;html=1;fillColor=#d5e8d4;strokeColor=#82b366;" parent="1" vertex="1"><mxGeometry x="440" y="10" width="180" height="30" as="geometry"/></mxCell><mxCell id="wLvtfyZSa0Nke1wQCWzJ-12" value="slow线程池:&amp;nbsp;&lt;span style=&quot;color: rgb(102, 14, 122); font-weight: bold; background-color: rgb(199, 237, 204); font-family: Consolas; font-size: 9pt;&quot;&gt;slowTriggerPool,当任务在1m中&amp;gt;10次超时时,用此线程池;[隔离机制]&lt;/span&gt;" style="rounded=1;whiteSpace=wrap;html=1;fillColor=#d5e8d4;strokeColor=#82b366;" parent="1" vertex="1"><mxGeometry x="440" y="70" width="270" height="30" as="geometry"/></mxCell><mxCell id="wLvtfyZSa0Nke1wQCWzJ-13" style="edgeStyle=orthogonalEdgeStyle;rounded=0;orthogonalLoop=1;jettySize=auto;html=1;entryX=-0.008;entryY=0.402;entryDx=0;entryDy=0;entryPerimeter=0;" parent="1" source="wLvtfyZSa0Nke1wQCWzJ-15" target="wLvtfyZSa0Nke1wQCWzJ-16" edge="1"><mxGeometry relative="1" as="geometry"/></mxCell><mxCell id="wLvtfyZSa0Nke1wQCWzJ-14" style="edgeStyle=orthogonalEdgeStyle;rounded=0;orthogonalLoop=1;jettySize=auto;html=1;entryX=0;entryY=0.5;entryDx=0;entryDy=0;" parent="1" source="wLvtfyZSa0Nke1wQCWzJ-15" target="wLvtfyZSa0Nke1wQCWzJ-17" edge="1"><mxGeometry relative="1" as="geometry"/></mxCell><mxCell id="wLvtfyZSa0Nke1wQCWzJ-15" value="2. 执行器相关线程池启动" style="rounded=1;whiteSpace=wrap;html=1;fillColor=#d5e8d4;strokeColor=#82b366;" parent="1" vertex="1"><mxGeometry x="240" y="140" width="120" height="60" as="geometry"/></mxCell><mxCell id="wLvtfyZSa0Nke1wQCWzJ-16" value="执行器注册监视线程启动:&amp;nbsp;&lt;span style=&quot;color: rgb(102, 14, 122); font-weight: bold; background-color: rgb(199, 237, 204); font-family: Consolas; font-size: 9pt;&quot;&gt;registryMonitorThread,每30S执行一次,主要任务, 从&lt;/span&gt;&lt;font face=&quot;Consolas&quot; color=&quot;#660e7a&quot;&gt;&lt;b&gt;xxl_job_registry表中找出距离当前时间90S开外未更新注册时间的执行服务器,并将其删除,拿到所有的存活的执行服务器的appname与ip的映射关系,通过appname去更新xxl-job-group表&lt;/b&gt;&lt;/font&gt;" style="rounded=1;whiteSpace=wrap;html=1;fillColor=#d5e8d4;strokeColor=#82b366;" parent="1" vertex="1"><mxGeometry x="440" y="130" width="300" height="100" as="geometry"/></mxCell><mxCell id="wLvtfyZSa0Nke1wQCWzJ-17" value="实例化线程池:&lt;span style=&quot;color: rgb(102, 14, 122); font-weight: bold; background-color: rgb(199, 237, 204); font-family: Consolas; font-size: 9pt;&quot;&gt;registryOrRemoveThreadPool: 它负责接受执行器的注册和移除请求,并执行注册和移除操作&lt;/span&gt;" style="rounded=1;whiteSpace=wrap;html=1;fillColor=#d5e8d4;strokeColor=#82b366;" parent="1" vertex="1"><mxGeometry x="440" y="270" width="230" height="60" as="geometry"/></mxCell><mxCell id="wLvtfyZSa0Nke1wQCWzJ-18" value="3.&lt;span style=&quot;background-color: rgb(199, 237, 204); font-family: Consolas; font-size: 9pt;&quot;&gt;JobFailMonitor线程实例化和启动, 每10S执行一次,从xxl-job-log中获取最近1000执行失败的记录,查询它是否还可以重试, 可以重试话的,视情况触发重试,&amp;nbsp; &amp;nbsp;告警更新xxl-job-log日志表;&lt;/span&gt;" style="rounded=1;whiteSpace=wrap;html=1;fillColor=#d5e8d4;strokeColor=#82b366;" parent="1" vertex="1"><mxGeometry x="240" y="360" width="410" height="60" as="geometry"/></mxCell><mxCell id="wLvtfyZSa0Nke1wQCWzJ-19" value="" style="edgeStyle=orthogonalEdgeStyle;rounded=0;orthogonalLoop=1;jettySize=auto;html=1;" parent="1" source="wLvtfyZSa0Nke1wQCWzJ-21" target="wLvtfyZSa0Nke1wQCWzJ-22" edge="1"><mxGeometry relative="1" as="geometry"/></mxCell><mxCell id="wLvtfyZSa0Nke1wQCWzJ-20" style="edgeStyle=orthogonalEdgeStyle;rounded=0;orthogonalLoop=1;jettySize=auto;html=1;entryX=0;entryY=0.5;entryDx=0;entryDy=0;" parent="1" source="wLvtfyZSa0Nke1wQCWzJ-21" target="wLvtfyZSa0Nke1wQCWzJ-23" edge="1"><mxGeometry relative="1" as="geometry"/></mxCell><mxCell id="wLvtfyZSa0Nke1wQCWzJ-21" value="4. 定时任务完成" style="rounded=1;whiteSpace=wrap;html=1;fillColor=#d5e8d4;strokeColor=#82b366;" parent="1" vertex="1"><mxGeometry x="240" y="500" width="120" height="60" as="geometry"/></mxCell><mxCell id="wLvtfyZSa0Nke1wQCWzJ-22" value="实例化线程池:&lt;br&gt;&lt;pre style=&quot;background-color: rgb(199, 237, 204); font-family: Consolas; font-size: 9pt;&quot;&gt;&lt;span style=&quot;color:#660e7a;font-weight:bold;&quot;&gt;callbackThreadPool,接受执行器&lt;/span&gt;&lt;/pre&gt;&lt;pre style=&quot;background-color: rgb(199, 237, 204); font-family: Consolas; font-size: 9pt;&quot;&gt;&lt;span style=&quot;color:#660e7a;font-weight:bold;&quot;&gt;执行结果,并更新xxx-job-log表&lt;/span&gt;&lt;/pre&gt;" style="whiteSpace=wrap;html=1;rounded=1;fillColor=#d5e8d4;strokeColor=#82b366;" parent="1" vertex="1"><mxGeometry x="420" y="440" width="240" height="80" as="geometry"/></mxCell><mxCell id="wLvtfyZSa0Nke1wQCWzJ-23" value="&lt;pre style=&quot;background-color: rgb(199, 237, 204); font-family: Consolas; font-size: 9pt;&quot;&gt;&lt;span style=&quot;color:#660e7a;font-weight:bold;&quot;&gt;monitorThread,每60S去xxl-job-log查看一次10分钟前开启的但&lt;/span&gt;&lt;/pre&gt;&lt;pre style=&quot;background-color: rgb(199, 237, 204); font-family: Consolas; font-size: 9pt;&quot;&gt;是还没有完成的任务&lt;span style=&quot;font-size: 9pt; white-space: normal;&quot;&gt;(基本判断服务不可用),将log中的任务置为失败;&lt;/span&gt;&lt;/pre&gt;" style="rounded=1;whiteSpace=wrap;html=1;fillColor=#d5e8d4;strokeColor=#82b366;" parent="1" vertex="1"><mxGeometry x="420" y="550" width="400" height="60" as="geometry"/></mxCell><mxCell id="wLvtfyZSa0Nke1wQCWzJ-24" value="" style="edgeStyle=orthogonalEdgeStyle;rounded=0;orthogonalLoop=1;jettySize=auto;html=1;" parent="1" source="wLvtfyZSa0Nke1wQCWzJ-26" target="wLvtfyZSa0Nke1wQCWzJ-27" edge="1"><mxGeometry relative="1" as="geometry"/></mxCell><mxCell id="wLvtfyZSa0Nke1wQCWzJ-25" style="edgeStyle=orthogonalEdgeStyle;rounded=0;orthogonalLoop=1;jettySize=auto;html=1;entryX=0;entryY=0.75;entryDx=0;entryDy=0;" parent="1" source="wLvtfyZSa0Nke1wQCWzJ-26" target="wLvtfyZSa0Nke1wQCWzJ-28" edge="1"><mxGeometry relative="1" as="geometry"/></mxCell><mxCell id="wLvtfyZSa0Nke1wQCWzJ-26" value="5.定时任务执行情况汇总" style="rounded=1;whiteSpace=wrap;html=1;fillColor=#d5e8d4;strokeColor=#82b366;" parent="1" vertex="1"><mxGeometry x="240" y="640" width="120" height="60" as="geometry"/></mxCell><mxCell id="wLvtfyZSa0Nke1wQCWzJ-27" value="汇总当前定时任务执行情况, 总数,运行中的, 成功的,失败的,60S一次" style="whiteSpace=wrap;html=1;rounded=1;fillColor=#d5e8d4;strokeColor=#82b366;" parent="1" vertex="1"><mxGeometry x="440" y="640" width="130" height="60" as="geometry"/></mxCell><mxCell id="wLvtfyZSa0Nke1wQCWzJ-28" value="执行日志清理, 每天检测一次" style="rounded=1;whiteSpace=wrap;html=1;fillColor=#d5e8d4;strokeColor=#82b366;" parent="1" vertex="1"><mxGeometry x="440" y="730" width="170" height="40" as="geometry"/></mxCell><mxCell id="wLvtfyZSa0Nke1wQCWzJ-29" value="" style="edgeStyle=orthogonalEdgeStyle;rounded=0;orthogonalLoop=1;jettySize=auto;html=1;" parent="1" source="wLvtfyZSa0Nke1wQCWzJ-31" target="wLvtfyZSa0Nke1wQCWzJ-32" edge="1"><mxGeometry relative="1" as="geometry"/></mxCell><mxCell id="wLvtfyZSa0Nke1wQCWzJ-30" style="edgeStyle=orthogonalEdgeStyle;rounded=0;orthogonalLoop=1;jettySize=auto;html=1;entryX=0;entryY=0.5;entryDx=0;entryDy=0;" parent="1" source="wLvtfyZSa0Nke1wQCWzJ-31" target="wLvtfyZSa0Nke1wQCWzJ-33" edge="1"><mxGeometry relative="1" as="geometry"/></mxCell><mxCell id="wLvtfyZSa0Nke1wQCWzJ-31" value="6.定时任务调度" style="rounded=1;whiteSpace=wrap;html=1;fillColor=#d5e8d4;strokeColor=#82b366;" parent="1" vertex="1"><mxGeometry x="240" y="1000" width="120" height="60" as="geometry"/></mxCell><mxCell id="wLvtfyZSa0Nke1wQCWzJ-32" value="&lt;pre style=&quot;background-color: rgb(199, 237, 204); font-family: Consolas; font-size: 9pt;&quot;&gt;&lt;span style=&quot;color:#660e7a;font-weight:bold;&quot;&gt;scheduleThread:5秒调度(定时任务执行时间+睡眠时间)一次去&lt;/span&gt;&lt;/pre&gt;&lt;pre style=&quot;background-color: rgb(199, 237, 204); font-family: Consolas; font-size: 9pt;&quot;&gt;&lt;span style=&quot;color:#660e7a;font-weight:bold;&quot;&gt;预&lt;/span&gt;加载定时任务,加载定时任务&lt;/pre&gt;&lt;pre style=&quot;background-color: rgb(199, 237, 204); font-family: Consolas; font-size: 9pt;&quot;&gt;&lt;span style=&quot;color:#660e7a;font-weight:bold;&quot;&gt;前获取到数据库悲观锁,获取下次执行时间在未来5S内的任务,&lt;/span&gt;&lt;/pre&gt;&lt;pre style=&quot;background-color: rgb(199, 237, 204); font-family: Consolas; font-size: 9pt;&quot;&gt;&lt;font color=&quot;#660e7a&quot;&gt;&lt;b&gt;1)定时任务获取到时已超过下次执行时间5S以上,执行与否取&lt;/b&gt;&lt;/font&gt;&lt;/pre&gt;&lt;pre style=&quot;background-color: rgb(199, 237, 204); font-family: Consolas; font-size: 9pt;&quot;&gt;&lt;font color=&quot;#660e7a&quot;&gt;&lt;b&gt;决于过期策略,&lt;/b&gt;&lt;/font&gt;&lt;font style=&quot;font-size: 9pt;&quot; color=&quot;#660e7a&quot;&gt;&lt;b&gt;同时刷新&lt;/b&gt;&lt;/font&gt;&lt;b style=&quot;font-size: 9pt; color: rgb(102, 14, 122);&quot;&gt;下次执行时间;&lt;/b&gt;&lt;/pre&gt;&lt;pre style=&quot;background-color: rgb(199, 237, 204); font-family: Consolas; font-size: 9pt;&quot;&gt;&lt;pre style=&quot;border-color: var(--border-color); font-size: 9pt; font-family: Consolas;&quot;&gt;&lt;font style=&quot;border-color: var(--border-color);&quot; color=&quot;#660e7a&quot;&gt;&lt;b style=&quot;border-color: var(--border-color);&quot;&gt;2)定时任务获取到时已超过下次执行时间 - 立即触发,并刷新&lt;/b&gt;&lt;/font&gt;&lt;/pre&gt;&lt;pre style=&quot;border-color: var(--border-color); font-size: 9pt; font-family: Consolas;&quot;&gt;&lt;font style=&quot;border-color: var(--border-color);&quot; color=&quot;#660e7a&quot;&gt;&lt;b style=&quot;border-color: var(--border-color);&quot;&gt;下次执行时间,如果下次触发时间在5S之内放进时间轮,再次刷新&lt;/b&gt;&lt;/font&gt;&lt;/pre&gt;&lt;pre style=&quot;border-color: var(--border-color); font-size: 9pt; font-family: Consolas;&quot;&gt;&lt;font style=&quot;border-color: var(--border-color);&quot; color=&quot;#660e7a&quot;&gt;&lt;b style=&quot;border-color: var(--border-color);&quot;&gt;下次执行时间;&lt;/b&gt;&lt;/font&gt;&lt;/pre&gt;&lt;pre style=&quot;border-color: var(--border-color); font-size: 9pt; font-family: Consolas;&quot;&gt;&lt;font style=&quot;border-color: var(--border-color);&quot; color=&quot;#660e7a&quot;&gt;&lt;b style=&quot;border-color: var(--border-color);&quot;&gt;3)定时任务未超过下次执行时间,直接放入时间轮,并刷新下次&lt;/b&gt;&lt;/font&gt;&lt;/pre&gt;&lt;pre style=&quot;border-color: var(--border-color); font-size: 9pt; font-family: Consolas;&quot;&gt;&lt;font style=&quot;border-color: var(--border-color);&quot; color=&quot;#660e7a&quot;&gt;&lt;b style=&quot;border-color: var(--border-color);&quot;&gt;执行时间; &lt;/b&gt;&lt;/font&gt;&lt;/pre&gt;&lt;pre style=&quot;border-color: var(--border-color); font-size: 9pt; font-family: Consolas;&quot;&gt;&lt;font style=&quot;border-color: var(--border-color);&quot; color=&quot;#660e7a&quot;&gt;&lt;b style=&quot;border-color: var(--border-color);&quot;&gt;4). 更新表中定时任务的下次执行时间;&lt;/b&gt;&lt;/font&gt;&lt;/pre&gt;&lt;/pre&gt;&lt;pre style=&quot;background-color: rgb(199, 237, 204); font-family: Consolas; font-size: 9pt;&quot;&gt;&lt;span style=&quot;color:#660e7a;font-weight:bold;&quot;&gt;&lt;br&gt;&lt;/span&gt;&lt;/pre&gt;" style="whiteSpace=wrap;html=1;rounded=1;fillColor=#d5e8d4;strokeColor=#82b366;" parent="1" vertex="1"><mxGeometry x="430" y="855" width="360" height="350" as="geometry"/></mxCell><mxCell id="wLvtfyZSa0Nke1wQCWzJ-33" value="&lt;pre style=&quot;background-color: rgb(199, 237, 204); font-family: Consolas; font-size: 9pt;&quot;&gt;&lt;span style=&quot;color:#660e7a;font-weight:bold;&quot;&gt;ringThread: 此线程每秒从时间轮&lt;/span&gt;&lt;/pre&gt;&lt;pre style=&quot;background-color: rgb(199, 237, 204); font-family: Consolas; font-size: 9pt;&quot;&gt;&lt;span style=&quot;color:#660e7a;font-weight:bold;&quot;&gt;中获取到线程并并委托给fast/slow线程池触发执行&lt;/span&gt;&lt;/pre&gt;&lt;pre style=&quot;background-color: rgb(199, 237, 204); font-family: Consolas; font-size: 9pt;&quot;&gt;&lt;span style=&quot;color:#660e7a;font-weight:bold;&quot;&gt;RPC远程调度&lt;/span&gt;&lt;/pre&gt;" style="rounded=1;whiteSpace=wrap;html=1;fillColor=#d5e8d4;strokeColor=#82b366;" parent="1" vertex="1"><mxGeometry x="440" y="1250" width="280" height="70" as="geometry"/></mxCell><mxCell id="wLvtfyZSa0Nke1wQCWzJ-34" style="edgeStyle=orthogonalEdgeStyle;rounded=0;orthogonalLoop=1;jettySize=auto;html=1;entryX=0;entryY=0.5;entryDx=0;entryDy=0;" parent="1" source="wLvtfyZSa0Nke1wQCWzJ-40" target="wLvtfyZSa0Nke1wQCWzJ-41" edge="1"><mxGeometry relative="1" as="geometry"/></mxCell><mxCell id="wLvtfyZSa0Nke1wQCWzJ-35" style="edgeStyle=orthogonalEdgeStyle;rounded=0;orthogonalLoop=1;jettySize=auto;html=1;entryX=0;entryY=0.5;entryDx=0;entryDy=0;" parent="1" source="wLvtfyZSa0Nke1wQCWzJ-40" target="wLvtfyZSa0Nke1wQCWzJ-43" edge="1"><mxGeometry relative="1" as="geometry"/></mxCell><mxCell id="wLvtfyZSa0Nke1wQCWzJ-36" value="" style="edgeStyle=orthogonalEdgeStyle;rounded=0;orthogonalLoop=1;jettySize=auto;html=1;" parent="1" source="wLvtfyZSa0Nke1wQCWzJ-40" target="wLvtfyZSa0Nke1wQCWzJ-45" edge="1"><mxGeometry relative="1" as="geometry"/></mxCell><mxCell id="wLvtfyZSa0Nke1wQCWzJ-37" style="edgeStyle=orthogonalEdgeStyle;rounded=0;orthogonalLoop=1;jettySize=auto;html=1;entryX=0;entryY=0.5;entryDx=0;entryDy=0;" parent="1" source="wLvtfyZSa0Nke1wQCWzJ-40" target="wLvtfyZSa0Nke1wQCWzJ-46" edge="1"><mxGeometry relative="1" as="geometry"/></mxCell><mxCell id="wLvtfyZSa0Nke1wQCWzJ-38" style="edgeStyle=orthogonalEdgeStyle;rounded=0;orthogonalLoop=1;jettySize=auto;html=1;entryX=0.008;entryY=0.65;entryDx=0;entryDy=0;entryPerimeter=0;" parent="1" source="wLvtfyZSa0Nke1wQCWzJ-40" target="wLvtfyZSa0Nke1wQCWzJ-47" edge="1"><mxGeometry relative="1" as="geometry"/></mxCell><mxCell id="wLvtfyZSa0Nke1wQCWzJ-39" style="edgeStyle=orthogonalEdgeStyle;rounded=0;orthogonalLoop=1;jettySize=auto;html=1;entryX=0;entryY=0.5;entryDx=0;entryDy=0;" parent="1" source="wLvtfyZSa0Nke1wQCWzJ-40" target="wLvtfyZSa0Nke1wQCWzJ-42" edge="1"><mxGeometry relative="1" as="geometry"/></mxCell><mxCell id="wLvtfyZSa0Nke1wQCWzJ-40" value="&lt;pre style=&quot;background-color: rgb(199, 237, 204); font-family: Consolas; font-size: 9pt;&quot;&gt;XxlJobExecutor执行器&lt;/pre&gt;" style="rounded=1;whiteSpace=wrap;html=1;fillColor=#d5e8d4;strokeColor=#82b366;" parent="1" vertex="1"><mxGeometry x="210" y="1520" width="150" height="60" as="geometry"/></mxCell><mxCell id="wLvtfyZSa0Nke1wQCWzJ-41" value="服务器接收到调度任务,组装执行对象,并放入到queue中" style="whiteSpace=wrap;html=1;rounded=1;fillColor=#d5e8d4;strokeColor=#82b366;align=left;" parent="1" vertex="1"><mxGeometry x="500" y="1710" width="120" height="60" as="geometry"/></mxCell><mxCell id="wLvtfyZSa0Nke1wQCWzJ-42" value="取出队列中的定时任务,执行完毕后在将结果放入到queue中" style="whiteSpace=wrap;html=1;rounded=1;fillColor=#d5e8d4;strokeColor=#82b366;" parent="1" vertex="1"><mxGeometry x="500" y="1830" width="120" height="60" as="geometry"/></mxCell><mxCell id="wLvtfyZSa0Nke1wQCWzJ-43" value="批量从回调queue中获取到定时任务结果,通过RPC回调admin服务接口,回调失败写日志, 30S重试一次;" style="rounded=1;whiteSpace=wrap;html=1;fillColor=#d5e8d4;strokeColor=#82b366;" parent="1" vertex="1"><mxGeometry x="500" y="1930" width="150" height="60" as="geometry"/></mxCell><mxCell id="wLvtfyZSa0Nke1wQCWzJ-44" value="核心类:&lt;br&gt;&lt;div&gt;&amp;nbsp;请求RPC: ExecutorBiz:&amp;nbsp; &amp;nbsp; &amp;nbsp; [admin: ExecutorBizClient ,&amp;nbsp;&lt;/div&gt;&lt;div&gt;&amp;nbsp; &amp;nbsp; &amp;nbsp; &amp;nbsp; &amp;nbsp; &amp;nbsp; &amp;nbsp; &amp;nbsp; &amp;nbsp; &amp;nbsp; &amp;nbsp; &amp;nbsp; &amp;nbsp; &amp;nbsp; &amp;nbsp; &amp;nbsp; &amp;nbsp; &amp;nbsp; &amp;nbsp; core: ExecutorBizImpl]&lt;/div&gt;&lt;div&gt;&lt;span style=&quot;background-color: initial;&quot;&gt;回调RPC: AdminBiz:&amp;nbsp; &amp;nbsp; &amp;nbsp;[admin: AdminBizImpl ,&lt;/span&gt;&lt;/div&gt;&lt;div&gt;&lt;span style=&quot;background-color: initial;&quot;&gt;&lt;span style=&quot;white-space: pre;&quot;&gt;&#9;&lt;/span&gt;&lt;span style=&quot;white-space: pre;&quot;&gt;&#9;&lt;/span&gt;&lt;span style=&quot;white-space: pre;&quot;&gt;&#9;&lt;/span&gt;&lt;span style=&quot;white-space: pre;&quot;&gt;&#9;&lt;/span&gt;&amp;nbsp;&amp;nbsp;&amp;nbsp;core: AdminBizClient]&lt;/span&gt;&lt;/div&gt;" style="rounded=1;whiteSpace=wrap;html=1;fillColor=#d5e8d4;strokeColor=#82b366;" parent="1" vertex="1"><mxGeometry x="60" y="2000" width="300" height="80" as="geometry"/></mxCell><mxCell id="wLvtfyZSa0Nke1wQCWzJ-45" value="1)设置日志文件地址&lt;br&gt;2)实例化远程调用对象;&lt;br&gt;3)启动清理日志文件线程;&lt;br&gt;4) 启动回调线程和回调重试线程;" style="whiteSpace=wrap;html=1;fillColor=#d5e8d4;strokeColor=#82b366;rounded=1;align=left;" parent="1" vertex="1"><mxGeometry x="500" y="1510" width="180" height="80" as="geometry"/></mxCell><mxCell id="wLvtfyZSa0Nke1wQCWzJ-46" value="&lt;pre style=&quot;background-color: rgb(199, 237, 204); font-family: Consolas; font-size: 9pt;&quot;&gt;XxlJobSpringExecutor实例化,&lt;/pre&gt;&lt;pre style=&quot;background-color: rgb(199, 237, 204); font-family: Consolas; font-size: 9pt;&quot;&gt;并实例化和注册IJobHandler(Bean模式)&lt;/pre&gt;" style="rounded=1;whiteSpace=wrap;html=1;" parent="1" vertex="1"><mxGeometry x="500" y="1410" width="230" height="60" as="geometry"/></mxCell><mxCell id="wLvtfyZSa0Nke1wQCWzJ-47" value="执行器向调度中心注册线程启动" style="rounded=1;whiteSpace=wrap;html=1;align=left;fillColor=#d5e8d4;strokeColor=#82b366;" parent="1" vertex="1"><mxGeometry x="500" y="1620" width="120" height="60" as="geometry"/></mxCell></root></mxGraphModel></diagram><diagram id="SfemdzN-8ODxfPOEQcT1" name="磁盘IO"><mxGraphModel dx="1036" dy="615" grid="1" gridSize="10" guides="1" tooltips="1" connect="1" arrows="1" fold="1" page="1" pageScale="1" pageWidth="827" pageHeight="1169" math="0" shadow="0"><root><mxCell id="0"/><mxCell id="1" parent="0"/><UserObject label="" tags="背景" id="ne1POR59Kp7xaS2ZmZk9-1"><mxCell style="vsdxID=16;fillColor=#a5a5a5;gradientColor=none;shape=stencil(nZBLDoAgDERP0z3SIyjew0SURgSD+Lu9kMZoXLhwN9O+tukAlrNpJg1SzDH4QW/URgNYgZTkjA4UkwJUgGXng+6DX1zLfmoymdXo17xh5zmRJ6Q42BWCfc2oJfdAr+Yv+AP9Cb7OJ3H/2JG1HNGz/84klThPVCc=);strokeColor=#ffffff;points=[[0.5,7.96,0],[0.5,8.33,0],[0.5,8.91,0],[0.5,9.42,0],[0.5,9.86,0],[0.5,10.16,0],[0.5,10.74,0],[0.5,11.26,0],[0.5,11.7,0],[0.5,11.99,0],[0.5,12.65,0],[0.5,13.09,0],[0.5,13.53,0],[0.5,14.04,0],[0.5,14.48,0],[0.5,14.92,0],[0.5,15.43,0],[0.5,15.87,0],[0.5,16.38,0],[0.5,16.82,0],[0.5,17.26,0],[0.5,17.78,0],[0.5,18.22,0],[0.5,18.66,0],[0.5,19.17,0]];labelBackgroundColor=none;rounded=0;html=1;whiteSpace=wrap;" vertex="1" parent="1"><mxGeometry x="900" y="25" width="100" height="54" as="geometry"/></mxCell></UserObject><mxCell id="ne1POR59Kp7xaS2ZmZk9-2" style="vsdxID=17;fillColor=#a5a5a5;gradientColor=none;shape=stencil(nZBLDoAgDERP0z3SIyjew0SURgSD+Lu9kMZoXLhwN9O+tukAlrNpJg1SzDH4QW/URgNYgZTkjA4UkwJUgGXng+6DX1zLfmoymdXo17xh5zmRJ6Q42BWCfc2oJfdAr+Yv+AP9Cb7OJ3H/2JG1HNGz/84klThPVCc=);strokeColor=#ffffff;points=[[0.5,1.67,0],[0.5,2.33,0],[0.5,3,0],[0.5,3.78,0],[0.5,4.33,0],[0.5,5.44,0],[0.5,6,0],[0.5,6.56,0],[0.5,7.33,0],[0.5,8.22,0],[0.5,8.78,0],[0.5,9.33,0],[0.5,10.22,0],[0.5,11,0],[0.5,11.29,0],[0.5,11.29,0],[0.5,11.29,0],[0.5,11.29,0],[0.5,11.29,0],[0.5,11.29,0],[0.5,11.29,0],[0.5,11.29,0],[0.5,11.29,0],[0.5,11.29,0],[0.5,11.29,0],[0.5,11.29,0],[0.5,11.29,0],[0.5,11.29,0],[0.5,11.29,0],[0.5,11.29,0],[0.5,11.29,0],[0.5,11.29,0],[0.5,11.29,0],[0.5,11.29,0],[0.5,11.29,0],[0.5,11.29,0],[0.5,11.29,0],[0.5,11.29,0],[0.5,11.29,0]];labelBackgroundColor=none;rounded=0;html=1;whiteSpace=wrap;" vertex="1" parent="ne1POR59Kp7xaS2ZmZk9-1"><mxGeometry x="14" y="9" width="72" height="36" as="geometry"/></mxCell><mxCell id="ne1POR59Kp7xaS2ZmZk9-3" style="vsdxID=18;fillColor=#a5a5a5;gradientColor=none;shape=stencil(1VFBDsIgEHwNRxKE+IJa/7GxSyFiaRa07e+FLImtB+/eZnZmdgkjTJcczCi0SpniHRc/ZCfMRWjtJ4fkc0HC9MJ0NhKOFJ/TwHyG6qzoEV91w8q5s6oRrTamJ8X8yl6gW9GoeZuVtgP9vUitElafJMUM2cfpEA1AI8pyRNoAYwuylBbEeTf+h2cV8Plm60Pglvb6dy1lxJWa/g0=);strokeColor=#ffffff;points=[[0.5,1.67,0],[0.5,2.33,0],[0.5,3,0],[0.5,3.78,0],[0.5,4.33,0],[0.5,5.44,0],[0.5,6,0],[0.5,6.56,0],[0.5,7.33,0],[0.5,8.22,0],[0.5,8.78,0],[0.5,9.33,0],[0.5,10.22,0],[0.5,11,0],[0.5,11.29,0],[0.5,11.29,0],[0.5,11.29,0],[0.5,11.29,0],[0.5,11.29,0],[0.5,11.29,0],[0.5,11.29,0],[0.5,11.29,0],[0.5,11.29,0],[0.5,11.29,0],[0.5,11.29,0],[0.5,11.29,0],[0.5,11.29,0],[0.5,11.29,0],[0.5,11.29,0],[0.5,11.29,0],[0.5,11.29,0],[0.5,11.29,0],[0.5,11.29,0],[0.5,11.29,0],[0.5,11.29,0],[0.5,11.29,0],[0.5,11.29,0],[0.5,11.29,0],[0.5,11.29,0]];labelBackgroundColor=none;rounded=0;html=1;whiteSpace=wrap;" vertex="1" parent="ne1POR59Kp7xaS2ZmZk9-1"><mxGeometry x="38" y="-5" width="24" height="1" as="geometry"/></mxCell><mxCell id="ne1POR59Kp7xaS2ZmZk9-4" style="vsdxID=20;edgeStyle=none;dashed=1;startArrow=none;endArrow=none;startSize=5;endSize=5;strokeColor=#919191;spacingTop=0;spacingBottom=0;spacingLeft=0;spacingRight=0;verticalAlign=middle;html=1;labelBackgroundColor=none;rounded=0;" edge="1" parent="ne1POR59Kp7xaS2ZmZk9-1"><mxGeometry relative="1" as="geometry"><Array as="points"/><mxPoint x="50" y="54" as="sourcePoint"/><mxPoint x="50" y="1534" as="targetPoint"/></mxGeometry></mxCell><mxCell id="ne1POR59Kp7xaS2ZmZk9-5" value="&lt;div style=&quot;font-size: 1px&quot;&gt;&lt;font style=&quot;font-size:19.76px;font-family:Calibri;color:#FFFFFF;direction:ltr;letter-spacing:0px;line-height:120%;opacity:1&quot;&gt;&lt;b&gt;Hardware&lt;br/&gt;&lt;/b&gt;&lt;/font&gt;&lt;/div&gt;" style="text;vsdxID=16;fillColor=none;gradientColor=none;strokeColor=none;points=[[0.5,7.96,0],[0.5,8.33,0],[0.5,8.91,0],[0.5,9.42,0],[0.5,9.86,0],[0.5,10.16,0],[0.5,10.74,0],[0.5,11.26,0],[0.5,11.7,0],[0.5,11.99,0],[0.5,12.65,0],[0.5,13.09,0],[0.5,13.53,0],[0.5,14.04,0],[0.5,14.48,0],[0.5,14.92,0],[0.5,15.43,0],[0.5,15.87,0],[0.5,16.38,0],[0.5,16.82,0],[0.5,17.26,0],[0.5,17.78,0],[0.5,18.22,0],[0.5,18.66,0],[0.5,19.17,0]];labelBackgroundColor=none;rounded=0;html=1;whiteSpace=wrap;verticalAlign=middle;align=center;;html=1;" vertex="1" parent="ne1POR59Kp7xaS2ZmZk9-1"><mxGeometry y="-0.6" width="100" height="54.6" as="geometry"/></mxCell><UserObject label="" tags="背景" id="ne1POR59Kp7xaS2ZmZk9-6"><mxCell style="vsdxID=21;fillColor=#a5a5a5;gradientColor=none;shape=stencil(nZBLDoAgDERP0z3SIyjew0SURgSD+Lu9kMZoXLhwN9O+tukAlrNpJg1SzDH4QW/URgNYgZTkjA4UkwJUgGXng+6DX1zLfmoymdXo17xh5zmRJ6Q42BWCfc2oJfdAr+Yv+AP9Cb7OJ3H/2JG1HNGz/84klThPVCc=);strokeColor=#ffffff;points=[[0.5,7.96,0],[0.5,8.33,0],[0.5,8.91,0],[0.5,9.42,0],[0.5,9.86,0],[0.5,10.16,0],[0.5,10.74,0],[0.5,11.26,0],[0.5,11.7,0],[0.5,11.99,0],[0.5,12.65,0],[0.5,13.09,0],[0.5,13.53,0],[0.5,14.04,0],[0.5,14.48,0],[0.5,14.92,0],[0.5,15.43,0],[0.5,15.87,0],[0.5,16.38,0],[0.5,16.82,0],[0.5,17.26,0],[0.5,17.78,0],[0.5,18.22,0],[0.5,18.66,0],[0.5,19.17,0]];labelBackgroundColor=none;rounded=0;html=1;whiteSpace=wrap;" vertex="1" parent="1"><mxGeometry x="500" y="25" width="100" height="54" as="geometry"/></mxCell></UserObject><mxCell id="ne1POR59Kp7xaS2ZmZk9-7" style="vsdxID=22;fillColor=#a5a5a5;gradientColor=none;shape=stencil(nZBLDoAgDERP0z3SIyjew0SURgSD+Lu9kMZoXLhwN9O+tukAlrNpJg1SzDH4QW/URgNYgZTkjA4UkwJUgGXng+6DX1zLfmoymdXo17xh5zmRJ6Q42BWCfc2oJfdAr+Yv+AP9Cb7OJ3H/2JG1HNGz/84klThPVCc=);strokeColor=#ffffff;points=[[0.5,1.67,0],[0.5,2.33,0],[0.5,3,0],[0.5,3.78,0],[0.5,4.33,0],[0.5,5.44,0],[0.5,6,0],[0.5,6.56,0],[0.5,7.33,0],[0.5,8.22,0],[0.5,8.78,0],[0.5,9.33,0],[0.5,10.22,0],[0.5,11,0],[0.5,11.29,0],[0.5,11.29,0],[0.5,11.29,0],[0.5,11.29,0],[0.5,11.29,0],[0.5,11.29,0],[0.5,11.29,0],[0.5,11.29,0],[0.5,11.29,0],[0.5,11.29,0],[0.5,11.29,0],[0.5,11.29,0],[0.5,11.29,0],[0.5,11.29,0],[0.5,11.29,0],[0.5,11.29,0],[0.5,11.29,0],[0.5,11.29,0],[0.5,11.29,0],[0.5,11.29,0],[0.5,11.29,0],[0.5,11.29,0],[0.5,11.29,0],[0.5,11.29,0],[0.5,11.29,0]];labelBackgroundColor=none;rounded=0;html=1;whiteSpace=wrap;" vertex="1" parent="ne1POR59Kp7xaS2ZmZk9-6"><mxGeometry x="14" y="9" width="72" height="36" as="geometry"/></mxCell><mxCell id="ne1POR59Kp7xaS2ZmZk9-8" style="vsdxID=23;fillColor=#a5a5a5;gradientColor=none;shape=stencil(1VFBDsIgEHwNRxKE+IJa/7GxSyFiaRa07e+FLImtB+/eZnZmdgkjTJcczCi0SpniHRc/ZCfMRWjtJ4fkc0HC9MJ0NhKOFJ/TwHyG6qzoEV91w8q5s6oRrTamJ8X8yl6gW9GoeZuVtgP9vUitElafJMUM2cfpEA1AI8pyRNoAYwuylBbEeTf+h2cV8Plm60Pglvb6dy1lxJWa/g0=);strokeColor=#ffffff;points=[[0.5,1.67,0],[0.5,2.33,0],[0.5,3,0],[0.5,3.78,0],[0.5,4.33,0],[0.5,5.44,0],[0.5,6,0],[0.5,6.56,0],[0.5,7.33,0],[0.5,8.22,0],[0.5,8.78,0],[0.5,9.33,0],[0.5,10.22,0],[0.5,11,0],[0.5,11.29,0],[0.5,11.29,0],[0.5,11.29,0],[0.5,11.29,0],[0.5,11.29,0],[0.5,11.29,0],[0.5,11.29,0],[0.5,11.29,0],[0.5,11.29,0],[0.5,11.29,0],[0.5,11.29,0],[0.5,11.29,0],[0.5,11.29,0],[0.5,11.29,0],[0.5,11.29,0],[0.5,11.29,0],[0.5,11.29,0],[0.5,11.29,0],[0.5,11.29,0],[0.5,11.29,0],[0.5,11.29,0],[0.5,11.29,0],[0.5,11.29,0],[0.5,11.29,0],[0.5,11.29,0]];labelBackgroundColor=none;rounded=0;html=1;whiteSpace=wrap;" vertex="1" parent="ne1POR59Kp7xaS2ZmZk9-6"><mxGeometry x="38" y="-5" width="24" height="1" as="geometry"/></mxCell><mxCell id="ne1POR59Kp7xaS2ZmZk9-9" style="vsdxID=25;edgeStyle=none;dashed=1;startArrow=none;endArrow=none;startSize=5;endSize=5;strokeColor=#919191;spacingTop=0;spacingBottom=0;spacingLeft=0;spacingRight=0;verticalAlign=middle;html=1;labelBackgroundColor=none;rounded=0;" edge="1" parent="ne1POR59Kp7xaS2ZmZk9-6"><mxGeometry relative="1" as="geometry"><Array as="points"/><mxPoint x="50" y="54" as="sourcePoint"/><mxPoint x="50" y="1534" as="targetPoint"/></mxGeometry></mxCell><mxCell id="ne1POR59Kp7xaS2ZmZk9-10" value="&lt;div style=&quot;font-size: 1px&quot;&gt;&lt;font style=&quot;font-size:19.76px;font-family:Calibri;color:#FFFFFF;direction:ltr;letter-spacing:0px;line-height:120%;opacity:1&quot;&gt;&lt;b&gt;OS&lt;br/&gt;&lt;/b&gt;&lt;/font&gt;&lt;/div&gt;" style="text;vsdxID=21;fillColor=none;gradientColor=none;strokeColor=none;points=[[0.5,7.96,0],[0.5,8.33,0],[0.5,8.91,0],[0.5,9.42,0],[0.5,9.86,0],[0.5,10.16,0],[0.5,10.74,0],[0.5,11.26,0],[0.5,11.7,0],[0.5,11.99,0],[0.5,12.65,0],[0.5,13.09,0],[0.5,13.53,0],[0.5,14.04,0],[0.5,14.48,0],[0.5,14.92,0],[0.5,15.43,0],[0.5,15.87,0],[0.5,16.38,0],[0.5,16.82,0],[0.5,17.26,0],[0.5,17.78,0],[0.5,18.22,0],[0.5,18.66,0],[0.5,19.17,0]];labelBackgroundColor=none;rounded=0;html=1;whiteSpace=wrap;verticalAlign=middle;align=center;;html=1;" vertex="1" parent="ne1POR59Kp7xaS2ZmZk9-6"><mxGeometry y="-0.6" width="100" height="54.6" as="geometry"/></mxCell><UserObject label="" tags="背景" id="ne1POR59Kp7xaS2ZmZk9-11"><mxCell style="vsdxID=26;fillColor=#a5a5a5;gradientColor=none;shape=stencil(nZBLDoAgDERP0z3SIyjew0SURgSD+Lu9kMZoXLhwN9O+tukAlrNpJg1SzDH4QW/URgNYgZTkjA4UkwJUgGXng+6DX1zLfmoymdXo17xh5zmRJ6Q42BWCfc2oJfdAr+Yv+AP9Cb7OJ3H/2JG1HNGz/84klThPVCc=);strokeColor=#ffffff;points=[[0.5,7.96,0],[0.5,8.33,0],[0.5,8.91,0],[0.5,9.42,0],[0.5,9.86,0],[0.5,10.16,0],[0.5,10.74,0],[0.5,11.26,0],[0.5,11.7,0],[0.5,11.99,0],[0.5,12.65,0],[0.5,13.09,0],[0.5,13.53,0],[0.5,14.04,0],[0.5,14.48,0],[0.5,14.92,0],[0.5,15.43,0],[0.5,15.87,0],[0.5,16.38,0],[0.5,16.82,0],[0.5,17.26,0],[0.5,17.78,0],[0.5,18.22,0],[0.5,18.66,0],[0.5,19.17,0]];labelBackgroundColor=none;rounded=0;html=1;whiteSpace=wrap;" vertex="1" parent="1"><mxGeometry x="100" y="25" width="100" height="54" as="geometry"/></mxCell></UserObject><mxCell id="ne1POR59Kp7xaS2ZmZk9-12" style="vsdxID=27;fillColor=#a5a5a5;gradientColor=none;shape=stencil(nZBLDoAgDERP0z3SIyjew0SURgSD+Lu9kMZoXLhwN9O+tukAlrNpJg1SzDH4QW/URgNYgZTkjA4UkwJUgGXng+6DX1zLfmoymdXo17xh5zmRJ6Q42BWCfc2oJfdAr+Yv+AP9Cb7OJ3H/2JG1HNGz/84klThPVCc=);strokeColor=#ffffff;points=[[0.5,1.67,0],[0.5,2.33,0],[0.5,3,0],[0.5,3.78,0],[0.5,4.33,0],[0.5,5.44,0],[0.5,6,0],[0.5,6.56,0],[0.5,7.33,0],[0.5,8.22,0],[0.5,8.78,0],[0.5,9.33,0],[0.5,10.22,0],[0.5,11,0],[0.5,11.29,0],[0.5,11.29,0],[0.5,11.29,0],[0.5,11.29,0],[0.5,11.29,0],[0.5,11.29,0],[0.5,11.29,0],[0.5,11.29,0],[0.5,11.29,0],[0.5,11.29,0],[0.5,11.29,0],[0.5,11.29,0],[0.5,11.29,0],[0.5,11.29,0],[0.5,11.29,0],[0.5,11.29,0],[0.5,11.29,0],[0.5,11.29,0],[0.5,11.29,0],[0.5,11.29,0],[0.5,11.29,0],[0.5,11.29,0],[0.5,11.29,0],[0.5,11.29,0],[0.5,11.29,0]];labelBackgroundColor=none;rounded=0;html=1;whiteSpace=wrap;" vertex="1" parent="ne1POR59Kp7xaS2ZmZk9-11"><mxGeometry x="14" y="9" width="72" height="36" as="geometry"/></mxCell><mxCell id="ne1POR59Kp7xaS2ZmZk9-13" style="vsdxID=28;fillColor=#a5a5a5;gradientColor=none;shape=stencil(1VFBDsIgEHwNRxKE+IJa/7GxSyFiaRa07e+FLImtB+/eZnZmdgkjTJcczCi0SpniHRc/ZCfMRWjtJ4fkc0HC9MJ0NhKOFJ/TwHyG6qzoEV91w8q5s6oRrTamJ8X8yl6gW9GoeZuVtgP9vUitElafJMUM2cfpEA1AI8pyRNoAYwuylBbEeTf+h2cV8Plm60Pglvb6dy1lxJWa/g0=);strokeColor=#ffffff;points=[[0.5,1.67,0],[0.5,2.33,0],[0.5,3,0],[0.5,3.78,0],[0.5,4.33,0],[0.5,5.44,0],[0.5,6,0],[0.5,6.56,0],[0.5,7.33,0],[0.5,8.22,0],[0.5,8.78,0],[0.5,9.33,0],[0.5,10.22,0],[0.5,11,0],[0.5,11.29,0],[0.5,11.29,0],[0.5,11.29,0],[0.5,11.29,0],[0.5,11.29,0],[0.5,11.29,0],[0.5,11.29,0],[0.5,11.29,0],[0.5,11.29,0],[0.5,11.29,0],[0.5,11.29,0],[0.5,11.29,0],[0.5,11.29,0],[0.5,11.29,0],[0.5,11.29,0],[0.5,11.29,0],[0.5,11.29,0],[0.5,11.29,0],[0.5,11.29,0],[0.5,11.29,0],[0.5,11.29,0],[0.5,11.29,0],[0.5,11.29,0],[0.5,11.29,0],[0.5,11.29,0]];labelBackgroundColor=none;rounded=0;html=1;whiteSpace=wrap;" vertex="1" parent="ne1POR59Kp7xaS2ZmZk9-11"><mxGeometry x="38" y="-5" width="24" height="1" as="geometry"/></mxCell><mxCell id="ne1POR59Kp7xaS2ZmZk9-14" style="vsdxID=30;edgeStyle=none;dashed=1;startArrow=none;endArrow=none;startSize=5;endSize=5;strokeColor=#919191;spacingTop=0;spacingBottom=0;spacingLeft=0;spacingRight=0;verticalAlign=middle;html=1;labelBackgroundColor=none;rounded=0;" edge="1" parent="ne1POR59Kp7xaS2ZmZk9-11"><mxGeometry relative="1" as="geometry"><Array as="points"/><mxPoint x="50" y="54" as="sourcePoint"/><mxPoint x="50" y="2298" as="targetPoint"/></mxGeometry></mxCell><mxCell id="ne1POR59Kp7xaS2ZmZk9-15" value="&lt;div style=&quot;font-size: 1px&quot;&gt;&lt;font style=&quot;font-size:19.76px;font-family:Calibri;color:#FFFFFF;direction:ltr;letter-spacing:0px;line-height:120%;opacity:1&quot;&gt;&lt;b&gt;process&lt;br/&gt;&lt;/b&gt;&lt;/font&gt;&lt;/div&gt;" style="text;vsdxID=26;fillColor=none;gradientColor=none;strokeColor=none;points=[[0.5,7.96,0],[0.5,8.33,0],[0.5,8.91,0],[0.5,9.42,0],[0.5,9.86,0],[0.5,10.16,0],[0.5,10.74,0],[0.5,11.26,0],[0.5,11.7,0],[0.5,11.99,0],[0.5,12.65,0],[0.5,13.09,0],[0.5,13.53,0],[0.5,14.04,0],[0.5,14.48,0],[0.5,14.92,0],[0.5,15.43,0],[0.5,15.87,0],[0.5,16.38,0],[0.5,16.82,0],[0.5,17.26,0],[0.5,17.78,0],[0.5,18.22,0],[0.5,18.66,0],[0.5,19.17,0]];labelBackgroundColor=none;rounded=0;html=1;whiteSpace=wrap;verticalAlign=middle;align=center;;html=1;" vertex="1" parent="ne1POR59Kp7xaS2ZmZk9-11"><mxGeometry y="-0.6" width="100" height="54.6" as="geometry"/></mxCell><UserObject label="" tags="连接线" id="ne1POR59Kp7xaS2ZmZk9-16"><mxCell style="vsdxID=43;edgeStyle=none;startArrow=none;endArrow=open;startSize=2;endSize=7;strokeColor=#65993a;spacingTop=0;spacingBottom=0;spacingLeft=0;spacingRight=0;verticalAlign=middle;html=1;labelBackgroundColor=#ffffff;rounded=0;exitX=0.5;exitY=12.12962962962963;exitDx=0;exitDy=0;exitPerimeter=0;entryX=0.5;entryY=12.12962962962963;entryDx=0;entryDy=0;entryPerimeter=0;" edge="1" parent="1" source="ne1POR59Kp7xaS2ZmZk9-6" target="ne1POR59Kp7xaS2ZmZk9-1"><mxGeometry relative="1" as="geometry"><mxPoint as="offset"/><Array as="points"/></mxGeometry></mxCell></UserObject><UserObject label="&lt;div style=&quot;font-size: 1px&quot;&gt;&lt;p style=&quot;align:center;margin-left:0;margin-right:0;margin-top:0px;margin-bottom:0px;text-indent:0;valign:middle;direction:ltr;&quot;&gt;&lt;font style=&quot;font-size:11.29px;font-family:Calibri;color:#000000;direction:ltr;letter-spacing:0px;line-height:120%;opacity:1&quot;&gt;OS决定什么时候讲缓存写到磁盘中,除非&lt;br/&gt;显式地调用了sync同步命令&lt;br/&gt;&lt;/font&gt;&lt;/p&gt;&lt;/div&gt;" tags="连接线" id="ne1POR59Kp7xaS2ZmZk9-17"><mxCell style="vsdxID=40;edgeStyle=none;startArrow=none;endArrow=block;startSize=2;endSize=7;strokeColor=#65993a;spacingTop=0;spacingBottom=0;spacingLeft=0;spacingRight=0;verticalAlign=middle;html=1;labelBackgroundColor=#FFFFFF;rounded=0;align=center;exitX=0.5;exitY=10.87037037037037;exitDx=0;exitDy=0;exitPerimeter=0;entryX=0.5;entryY=12.12962962962963;entryDx=0;entryDy=0;entryPerimeter=0;" edge="1" parent="1" source="ne1POR59Kp7xaS2ZmZk9-6" target="ne1POR59Kp7xaS2ZmZk9-6"><mxGeometry relative="1" as="geometry"><mxPoint x="-16" y="-6" as="offset"/><Array as="points"><mxPoint x="575.4" y="612"/><mxPoint x="575.4" y="680"/></Array></mxGeometry></mxCell></UserObject><UserObject label="" tags="背景" id="ne1POR59Kp7xaS2ZmZk9-18"><mxCell style="vsdxID=39;edgeStyle=none;startArrow=none;endArrow=none;startSize=5;endSize=5;strokeColor=#65993a;spacingTop=0;spacingBottom=0;spacingLeft=0;spacingRight=0;verticalAlign=middle;html=1;labelBackgroundColor=none;rounded=0;" edge="1" parent="1" source="ne1POR59Kp7xaS2ZmZk9-6" target="ne1POR59Kp7xaS2ZmZk9-6"><mxGeometry relative="1" as="geometry"><Array as="points"><mxPoint x="550" y="680"/></Array></mxGeometry></mxCell></UserObject><UserObject label="&lt;div style=&quot;font-size: 1px&quot;&gt;&lt;p style=&quot;align:center;margin-left:0;margin-right:0;margin-top:0px;margin-bottom:0px;text-indent:0;valign:middle;direction:ltr;&quot;&gt;&lt;font style=&quot;font-size:11.29px;font-family:Calibri;color:#000000;direction:ltr;letter-spacing:0px;line-height:120%;opacity:1&quot;&gt;调用Write()接口,将数据从用户地址空间复制到内核&lt;br/&gt;地址空间的缓存中,此时对于用户程序来说操作已经完成&lt;br/&gt;&lt;/font&gt;&lt;/p&gt;&lt;/div&gt;" tags="连接线" id="ne1POR59Kp7xaS2ZmZk9-19"><mxCell style="vsdxID=38;edgeStyle=none;startArrow=none;endArrow=block;startSize=2;endSize=7;strokeColor=#65993a;spacingTop=0;spacingBottom=0;spacingLeft=0;spacingRight=0;verticalAlign=middle;html=1;labelBackgroundColor=#FFFFFF;rounded=0;align=center;exitX=0.5;exitY=10.277777777777779;exitDx=0;exitDy=0;exitPerimeter=0;entryX=0.5;entryY=10.277777777777779;entryDx=0;entryDy=0;entryPerimeter=0;" edge="1" parent="1" source="ne1POR59Kp7xaS2ZmZk9-11" target="ne1POR59Kp7xaS2ZmZk9-6"><mxGeometry relative="1" as="geometry"><mxPoint as="offset"/><Array as="points"/></mxGeometry></mxCell></UserObject><UserObject label="&lt;div style=&quot;font-size: 1px&quot;&gt;&lt;p style=&quot;align:center;margin-left:0;margin-right:0;margin-top:0px;margin-bottom:0px;text-indent:0;valign:middle;direction:ltr;&quot;&gt;&lt;font style=&quot;font-size:11.29px;font-family:Calibri;color:#000000;direction:ltr;letter-spacing:0px;line-height:120%;opacity:1&quot;&gt;在返回给应用程序&lt;br/&gt;&lt;/font&gt;&lt;/p&gt;&lt;/div&gt;" tags="连接线" id="ne1POR59Kp7xaS2ZmZk9-20"><mxCell style="vsdxID=37;edgeStyle=none;dashed=1;startArrow=none;endArrow=open;startSize=2;endSize=7;strokeColor=#65993a;spacingTop=0;spacingBottom=0;spacingLeft=0;spacingRight=0;verticalAlign=middle;html=1;labelBackgroundColor=#FFFFFF;rounded=0;align=center;exitX=0.5;exitY=6.203703703703703;exitDx=0;exitDy=0;exitPerimeter=0;entryX=0.5;entryY=6.203703703703703;entryDx=0;entryDy=0;entryPerimeter=0;" edge="1" parent="1" source="ne1POR59Kp7xaS2ZmZk9-6" target="ne1POR59Kp7xaS2ZmZk9-11"><mxGeometry relative="1" as="geometry"><mxPoint as="offset"/><Array as="points"/></mxGeometry></mxCell></UserObject><UserObject label="&lt;div style=&quot;font-size: 1px&quot;&gt;&lt;p style=&quot;align:center;margin-left:0;margin-right:0;margin-top:0px;margin-bottom:0px;text-indent:0;valign:middle;direction:ltr;&quot;&gt;&lt;font style=&quot;font-size:11.29px;font-family:Calibri;color:#000000;direction:ltr;letter-spacing:0px;line-height:120%;opacity:1&quot;&gt;返回数据,并将数据缓存在OS的缓存中&lt;br/&gt;&lt;/font&gt;&lt;/p&gt;&lt;/div&gt;" tags="连接线" id="ne1POR59Kp7xaS2ZmZk9-21"><mxCell style="vsdxID=36;edgeStyle=none;dashed=1;startArrow=none;endArrow=open;startSize=2;endSize=7;strokeColor=#65993a;spacingTop=0;spacingBottom=0;spacingLeft=0;spacingRight=0;verticalAlign=middle;html=1;labelBackgroundColor=#FFFFFF;rounded=0;align=center;exitX=0.5;exitY=6.203703703703703;exitDx=0;exitDy=0;exitPerimeter=0;entryX=0.5;entryY=6.203703703703703;entryDx=0;entryDy=0;entryPerimeter=0;" edge="1" parent="1" source="ne1POR59Kp7xaS2ZmZk9-1" target="ne1POR59Kp7xaS2ZmZk9-6"><mxGeometry relative="1" as="geometry"><mxPoint as="offset"/><Array as="points"/></mxGeometry></mxCell></UserObject><mxCell id="ne1POR59Kp7xaS2ZmZk9-22" vertex="1" parent="1"><mxGeometry x="556" y="280" as="geometry"/></mxCell><UserObject label="&lt;div style=&quot;font-size: 1px&quot;&gt;&lt;p style=&quot;align:center;margin-left:0;margin-right:0;margin-top:0px;margin-bottom:0px;text-indent:0;valign:middle;direction:ltr;&quot;&gt;&lt;font style=&quot;font-size:11.29px;font-family:Calibri;color:#000000;direction:ltr;letter-spacing:0px;line-height:120%;opacity:1&quot;&gt;缓存中没有需要的数据,去磁盘中读取数据&lt;br/&gt;&lt;/font&gt;&lt;/p&gt;&lt;/div&gt;" tags="连接线" id="ne1POR59Kp7xaS2ZmZk9-23"><mxCell style="vsdxID=35;edgeStyle=none;startArrow=none;endArrow=block;startSize=2;endSize=7;strokeColor=#65993a;spacingTop=0;spacingBottom=0;spacingLeft=0;spacingRight=0;verticalAlign=middle;html=1;labelBackgroundColor=#FFFFFF;rounded=0;align=center;entryX=0.5;entryY=4.722222222222222;entryDx=0;entryDy=0;entryPerimeter=0;" edge="1" parent="1" source="ne1POR59Kp7xaS2ZmZk9-22" target="ne1POR59Kp7xaS2ZmZk9-1"><mxGeometry relative="1" as="geometry"><mxPoint as="offset"/><Array as="points"/></mxGeometry></mxCell></UserObject><UserObject label="&lt;div style=&quot;font-size: 1px&quot;&gt;&lt;font style=&quot;font-size:11.29px;font-family:SimSun;color:#000000;direction:ltr;letter-spacing:0px;line-height:120%;opacity:1&quot;&gt;调用OS的read()方法读取数据&lt;br/&gt;&lt;/font&gt;&lt;/div&gt;" tags="连接线" id="ne1POR59Kp7xaS2ZmZk9-24"><mxCell style="vsdxID=31;edgeStyle=none;startArrow=none;endArrow=block;startSize=2;endSize=7;strokeColor=#65993a;spacingTop=0;spacingBottom=0;spacingLeft=0;spacingRight=0;verticalAlign=middle;html=1;labelBackgroundColor=#ffffff;rounded=0;align=center;exitX=0.5;exitY=2.8703703703703702;exitDx=0;exitDy=0;exitPerimeter=0;entryX=0.5;entryY=2.8703703703703702;entryDx=0;entryDy=0;entryPerimeter=0;" edge="1" parent="1" source="ne1POR59Kp7xaS2ZmZk9-11" target="ne1POR59Kp7xaS2ZmZk9-6"><mxGeometry relative="1" as="geometry"><mxPoint as="offset"/><Array as="points"/></mxGeometry></mxCell></UserObject><UserObject label="" tags="背景" id="ne1POR59Kp7xaS2ZmZk9-25"><mxCell style="vsdxID=32;edgeStyle=none;startArrow=none;endArrow=none;startSize=5;endSize=5;strokeColor=#65993a;spacingTop=0;spacingBottom=0;spacingLeft=0;spacingRight=0;verticalAlign=middle;html=1;labelBackgroundColor=none;rounded=0;" edge="1" parent="1" source="ne1POR59Kp7xaS2ZmZk9-6" target="ne1POR59Kp7xaS2ZmZk9-6"><mxGeometry relative="1" as="geometry"><Array as="points"><mxPoint x="550" y="280"/></Array></mxGeometry></mxCell></UserObject><mxCell id="ne1POR59Kp7xaS2ZmZk9-26" vertex="1" parent="1"><mxGeometry x="556" y="180" as="geometry"/></mxCell><mxCell id="ne1POR59Kp7xaS2ZmZk9-27" vertex="1" parent="1"><mxGeometry x="556" y="280" as="geometry"/></mxCell><UserObject label="&lt;div style=&quot;font-size: 1px&quot;&gt;&lt;font style=&quot;font-size:11.29px;font-family:SimSun;color:#000000;direction:ltr;letter-spacing:0px;line-height:120%;opacity:1&quot;&gt;OS检测内核的告诉缓存中是否有需要的数据&lt;br/&gt;&lt;/font&gt;&lt;/div&gt;" tags="连接线" id="ne1POR59Kp7xaS2ZmZk9-28"><mxCell style="vsdxID=33;edgeStyle=none;startArrow=none;endArrow=block;startSize=2;endSize=7;strokeColor=#65993a;spacingTop=0;spacingBottom=0;spacingLeft=0;spacingRight=0;verticalAlign=middle;html=1;labelBackgroundColor=#ffffff;rounded=0;align=center;" edge="1" parent="1" source="ne1POR59Kp7xaS2ZmZk9-26" target="ne1POR59Kp7xaS2ZmZk9-27"><mxGeometry relative="1" as="geometry"><mxPoint x="-16" as="offset"/><Array as="points"><mxPoint x="581.4" y="180"/><mxPoint x="581.4" y="280"/></Array></mxGeometry></mxCell></UserObject><mxCell id="ne1POR59Kp7xaS2ZmZk9-29" vertex="1" parent="1"><mxGeometry x="544" y="280" as="geometry"/></mxCell><UserObject label="&lt;div style=&quot;font-size: 1px&quot;&gt;&lt;p style=&quot;align:center;margin-left:0;margin-right:0;margin-top:0px;margin-bottom:0px;text-indent:0;valign:middle;direction:ltr;&quot;&gt;&lt;font style=&quot;font-size:11.29px;font-family:Calibri;color:#000000;direction:ltr;letter-spacing:0px;line-height:120%;opacity:1&quot;&gt;如果有则直接返回给应用程序&lt;br/&gt;&lt;/font&gt;&lt;/p&gt;&lt;/div&gt;" tags="连接线" id="ne1POR59Kp7xaS2ZmZk9-30"><mxCell style="vsdxID=34;edgeStyle=none;dashed=1;startArrow=none;endArrow=open;startSize=2;endSize=7;strokeColor=#65993a;spacingTop=0;spacingBottom=0;spacingLeft=0;spacingRight=0;verticalAlign=middle;html=1;labelBackgroundColor=#FFFFFF;rounded=0;align=center;entryX=0.5;entryY=4.722222222222222;entryDx=0;entryDy=0;entryPerimeter=0;" edge="1" parent="1" source="ne1POR59Kp7xaS2ZmZk9-29" target="ne1POR59Kp7xaS2ZmZk9-11"><mxGeometry relative="1" as="geometry"><mxPoint as="offset"/><Array as="points"/></mxGeometry></mxCell></UserObject></root></mxGraphModel></diagram><diagram id="zwaeOtbA-VBBxaO3l_8y" name="CooKie&amp;Session"><mxGraphModel dx="1036" dy="615" grid="1" gridSize="10" guides="1" tooltips="1" connect="1" arrows="1" fold="1" page="1" pageScale="1" pageWidth="827" pageHeight="1169" math="0" shadow="0"><root><mxCell id="0"/><mxCell id="1" parent="0"/><UserObject label="" tags="背景" id="5MetkqHXQ_dfsR7PixhB-1"><mxCell style="vsdxID=1;fillColor=#FFFFFF;gradientColor=none;shape=stencil(nZBLDoAgDERP0z3SIyjew0SURgSD+Lu9kMZoXLhwN9O+tukAlrNpJg1SzDH4QW/URgNYgZTkjA4UkwJUgGXng+6DX1zLfmoymdXo17xh5zmRJ6Q42BWCfc2oJfdAr+Yv+AP9Cb7OJ3H/2JG1HNGz/84klThPVCc=);points=[[0.5,1.67,0],[0.5,2.33,0],[0.5,3,0],[0.5,3.78,0],[0.5,4.33,0],[0.5,5.44,0],[0.5,6,0],[0.5,6.56,0],[0.5,7.33,0],[0.5,8.22,0],[0.5,8.78,0],[0.5,9.33,0],[0.5,10.22,0],[0.5,11,0],[0.5,11.29,0],[0.5,11.29,0],[0.5,11.29,0],[0.5,11.29,0],[0.5,11.29,0],[0.5,11.29,0],[0.5,11.29,0],[0.5,11.29,0],[0.5,11.29,0],[0.5,11.29,0],[0.5,11.29,0],[0.5,11.29,0],[0.5,11.29,0],[0.5,11.29,0],[0.5,11.29,0],[0.5,11.29,0],[0.5,11.29,0],[0.5,11.29,0],[0.5,11.29,0],[0.5,11.29,0],[0.5,11.29,0],[0.5,11.29,0],[0.5,11.29,0],[0.5,11.29,0],[0.5,11.29,0]];labelBackgroundColor=none;rounded=0;html=1;whiteSpace=wrap;" vertex="1" parent="1"><mxGeometry x="25" y="90" width="72" height="36" as="geometry"/></mxCell></UserObject><mxCell id="5MetkqHXQ_dfsR7PixhB-2" style="vsdxID=2;fillColor=#FFFFFF;gradientColor=none;shape=stencil(nZBLDoAgDERP0z3SIyjew0SURgSD+Lu9kMZoXLhwN9O+tukAlrNpJg1SzDH4QW/URgNYgZTkjA4UkwJUgGXng+6DX1zLfmoymdXo17xh5zmRJ6Q42BWCfc2oJfdAr+Yv+AP9Cb7OJ3H/2JG1HNGz/84klThPVCc=);points=[[0.5,1.67,0],[0.5,2.33,0],[0.5,3,0],[0.5,3.78,0],[0.5,4.33,0],[0.5,5.44,0],[0.5,6,0],[0.5,6.56,0],[0.5,7.33,0],[0.5,8.22,0],[0.5,8.78,0],[0.5,9.33,0],[0.5,10.22,0],[0.5,11,0],[0.5,11.29,0],[0.5,11.29,0],[0.5,11.29,0],[0.5,11.29,0],[0.5,11.29,0],[0.5,11.29,0],[0.5,11.29,0],[0.5,11.29,0],[0.5,11.29,0],[0.5,11.29,0],[0.5,11.29,0],[0.5,11.29,0],[0.5,11.29,0],[0.5,11.29,0],[0.5,11.29,0],[0.5,11.29,0],[0.5,11.29,0],[0.5,11.29,0],[0.5,11.29,0],[0.5,11.29,0],[0.5,11.29,0],[0.5,11.29,0],[0.5,11.29,0],[0.5,11.29,0],[0.5,11.29,0]];labelBackgroundColor=none;rounded=0;html=1;whiteSpace=wrap;" vertex="1" parent="5MetkqHXQ_dfsR7PixhB-1"><mxGeometry width="72" height="36" as="geometry"/></mxCell><mxCell id="5MetkqHXQ_dfsR7PixhB-3" style="vsdxID=3;fillColor=#FFFFFF;gradientColor=none;shape=stencil(tZTNDoIwDICfZkeSsQXFM+J7LDJgcTJSpuDbu6USgQhBord2/dr1LyU8aUpRS8JoY8FcZKsyWxJ+JIypqpSgrJMITwlPcgOyAHOrMtRr4UkvXc3dR+jQj1HvwugD1ZCifkJWq2qejdaj+wV0K8kXyHCMsmgePaxH++asy2B9XfFmdGkE8ReTjbazux+FXV7E8dLyKTtEBZydCSabAH3HUO1GrZ4Eol0gOtUEYKywylSj7dMCChm4T4Jci+Llh6amlbIePG9O63N9f0nLCe/TkCut8bIM7dNT4p7wDPH0CQ==);points=[[0.5,1.67,0],[0.5,2.33,0],[0.5,3,0],[0.5,3.78,0],[0.5,4.33,0],[0.5,5.44,0],[0.5,6,0],[0.5,6.56,0],[0.5,7.33,0],[0.5,8.22,0],[0.5,8.78,0],[0.5,9.33,0],[0.5,10.22,0],[0.5,11,0],[0.5,11.29,0],[0.5,11.29,0],[0.5,11.29,0],[0.5,11.29,0],[0.5,11.29,0],[0.5,11.29,0],[0.5,11.29,0],[0.5,11.29,0],[0.5,11.29,0],[0.5,11.29,0],[0.5,11.29,0],[0.5,11.29,0],[0.5,11.29,0],[0.5,11.29,0],[0.5,11.29,0],[0.5,11.29,0],[0.5,11.29,0],[0.5,11.29,0],[0.5,11.29,0],[0.5,11.29,0],[0.5,11.29,0],[0.5,11.29,0],[0.5,11.29,0],[0.5,11.29,0],[0.5,11.29,0]];labelBackgroundColor=none;rounded=0;html=1;whiteSpace=wrap;" vertex="1" parent="5MetkqHXQ_dfsR7PixhB-1"><mxGeometry x="24" y="-53" width="24" height="48" as="geometry"/></mxCell><mxCell id="5MetkqHXQ_dfsR7PixhB-4" style="vsdxID=5;edgeStyle=none;dashed=1;startArrow=none;endArrow=none;startSize=5;endSize=5;spacingTop=0;spacingBottom=0;spacingLeft=0;spacingRight=0;verticalAlign=middle;html=1;labelBackgroundColor=#ffffff;rounded=0;" edge="1" parent="5MetkqHXQ_dfsR7PixhB-1"><mxGeometry relative="1" as="geometry"><Array as="points"/><mxPoint x="36" y="36" as="sourcePoint"/><mxPoint x="36" y="1058" as="targetPoint"/></mxGeometry></mxCell><mxCell id="5MetkqHXQ_dfsR7PixhB-5" value="&lt;div style=&quot;font-size: 1px&quot;&gt;&lt;font style=&quot;font-size:16.93px;font-family:SimSun;color:#000000;direction:ltr;letter-spacing:0px;line-height:120%;opacity:1&quot;&gt;&lt;b&gt;Client&lt;br/&gt;&lt;/b&gt;&lt;/font&gt;&lt;/div&gt;" style="text;vsdxID=1;fillColor=none;gradientColor=none;points=[[0.5,1.67,0],[0.5,2.33,0],[0.5,3,0],[0.5,3.78,0],[0.5,4.33,0],[0.5,5.44,0],[0.5,6,0],[0.5,6.56,0],[0.5,7.33,0],[0.5,8.22,0],[0.5,8.78,0],[0.5,9.33,0],[0.5,10.22,0],[0.5,11,0],[0.5,11.29,0],[0.5,11.29,0],[0.5,11.29,0],[0.5,11.29,0],[0.5,11.29,0],[0.5,11.29,0],[0.5,11.29,0],[0.5,11.29,0],[0.5,11.29,0],[0.5,11.29,0],[0.5,11.29,0],[0.5,11.29,0],[0.5,11.29,0],[0.5,11.29,0],[0.5,11.29,0],[0.5,11.29,0],[0.5,11.29,0],[0.5,11.29,0],[0.5,11.29,0],[0.5,11.29,0],[0.5,11.29,0],[0.5,11.29,0],[0.5,11.29,0],[0.5,11.29,0],[0.5,11.29,0]];labelBackgroundColor=none;rounded=0;html=1;whiteSpace=wrap;verticalAlign=middle;align=center;strokeColor=none;;html=1;" vertex="1" parent="5MetkqHXQ_dfsR7PixhB-1"><mxGeometry width="72" height="36" as="geometry"/></mxCell><UserObject label="" tags="背景" id="5MetkqHXQ_dfsR7PixhB-6"><mxCell style="vsdxID=6;fillColor=#FFFFFF;gradientColor=none;shape=stencil(nZBLDoAgDERP0z3SIyjew0SURgSD+Lu9kMZoXLhwN9O+tukAlrNpJg1SzDH4QW/URgNYgZTkjA4UkwJUgGXng+6DX1zLfmoymdXo17xh5zmRJ6Q42BWCfc2oJfdAr+Yv+AP9Cb7OJ3H/2JG1HNGz/84klThPVCc=);points=[[0.5,1.67,0],[0.5,2.33,0],[0.5,3,0],[0.5,3.78,0],[0.5,4.33,0],[0.5,5.44,0],[0.5,6,0],[0.5,6.56,0],[0.5,7.33,0],[0.5,8.22,0],[0.5,8.78,0],[0.5,9.33,0],[0.5,10.22,0],[0.5,11,0],[0.5,11.29,0],[0.5,11.29,0],[0.5,11.29,0],[0.5,11.29,0],[0.5,11.29,0],[0.5,11.29,0],[0.5,11.29,0],[0.5,11.29,0],[0.5,11.29,0],[0.5,11.29,0],[0.5,11.29,0],[0.5,11.29,0],[0.5,11.29,0],[0.5,11.29,0],[0.5,11.29,0],[0.5,11.29,0],[0.5,11.29,0],[0.5,11.29,0],[0.5,11.29,0],[0.5,11.29,0],[0.5,11.29,0],[0.5,11.29,0],[0.5,11.29,0],[0.5,11.29,0],[0.5,11.29,0]];labelBackgroundColor=none;rounded=0;html=1;whiteSpace=wrap;" vertex="1" parent="1"><mxGeometry x="742" y="90" width="72" height="36" as="geometry"/></mxCell></UserObject><mxCell id="5MetkqHXQ_dfsR7PixhB-7" style="vsdxID=7;fillColor=#FFFFFF;gradientColor=none;shape=stencil(nZBLDoAgDERP0z3SIyjew0SURgSD+Lu9kMZoXLhwN9O+tukAlrNpJg1SzDH4QW/URgNYgZTkjA4UkwJUgGXng+6DX1zLfmoymdXo17xh5zmRJ6Q42BWCfc2oJfdAr+Yv+AP9Cb7OJ3H/2JG1HNGz/84klThPVCc=);points=[[0.5,1.67,0],[0.5,2.33,0],[0.5,3,0],[0.5,3.78,0],[0.5,4.33,0],[0.5,5.44,0],[0.5,6,0],[0.5,6.56,0],[0.5,7.33,0],[0.5,8.22,0],[0.5,8.78,0],[0.5,9.33,0],[0.5,10.22,0],[0.5,11,0],[0.5,11.29,0],[0.5,11.29,0],[0.5,11.29,0],[0.5,11.29,0],[0.5,11.29,0],[0.5,11.29,0],[0.5,11.29,0],[0.5,11.29,0],[0.5,11.29,0],[0.5,11.29,0],[0.5,11.29,0],[0.5,11.29,0],[0.5,11.29,0],[0.5,11.29,0],[0.5,11.29,0],[0.5,11.29,0],[0.5,11.29,0],[0.5,11.29,0],[0.5,11.29,0],[0.5,11.29,0],[0.5,11.29,0],[0.5,11.29,0],[0.5,11.29,0],[0.5,11.29,0],[0.5,11.29,0]];labelBackgroundColor=none;rounded=0;html=1;whiteSpace=wrap;" vertex="1" parent="5MetkqHXQ_dfsR7PixhB-6"><mxGeometry width="72" height="36" as="geometry"/></mxCell><mxCell id="5MetkqHXQ_dfsR7PixhB-8" style="vsdxID=8;fillColor=#FFFFFF;gradientColor=none;shape=stencil(1VFBDsIgEHwNRxKE+IJa/7GxSyFiaRa07e+FLImtB+/eZnZmdgkjTJcczCi0SpniHRc/ZCfMRWjtJ4fkc0HC9MJ0NhKOFJ/TwHyG6qzoEV91w8q5s6oRrTamJ8X8yl6gW9GoeZuVtgP9vUitElafJMUM2cfpEA1AI8pyRNoAYwuylBbEeTf+h2cV8Plm60Pglvb6dy1lxJWa/g0=);points=[[0.5,1.67,0],[0.5,2.33,0],[0.5,3,0],[0.5,3.78,0],[0.5,4.33,0],[0.5,5.44,0],[0.5,6,0],[0.5,6.56,0],[0.5,7.33,0],[0.5,8.22,0],[0.5,8.78,0],[0.5,9.33,0],[0.5,10.22,0],[0.5,11,0],[0.5,11.29,0],[0.5,11.29,0],[0.5,11.29,0],[0.5,11.29,0],[0.5,11.29,0],[0.5,11.29,0],[0.5,11.29,0],[0.5,11.29,0],[0.5,11.29,0],[0.5,11.29,0],[0.5,11.29,0],[0.5,11.29,0],[0.5,11.29,0],[0.5,11.29,0],[0.5,11.29,0],[0.5,11.29,0],[0.5,11.29,0],[0.5,11.29,0],[0.5,11.29,0],[0.5,11.29,0],[0.5,11.29,0],[0.5,11.29,0],[0.5,11.29,0],[0.5,11.29,0],[0.5,11.29,0]];labelBackgroundColor=none;rounded=0;html=1;whiteSpace=wrap;" vertex="1" parent="5MetkqHXQ_dfsR7PixhB-6"><mxGeometry x="24" y="-5" width="24" height="1" as="geometry"/></mxCell><mxCell id="5MetkqHXQ_dfsR7PixhB-9" style="vsdxID=10;edgeStyle=none;dashed=1;startArrow=none;endArrow=none;startSize=5;endSize=5;spacingTop=0;spacingBottom=0;spacingLeft=0;spacingRight=0;verticalAlign=middle;html=1;labelBackgroundColor=#ffffff;rounded=0;" edge="1" parent="5MetkqHXQ_dfsR7PixhB-6"><mxGeometry relative="1" as="geometry"><Array as="points"/><mxPoint x="36" y="36" as="sourcePoint"/><mxPoint x="36" y="1068" as="targetPoint"/></mxGeometry></mxCell><mxCell id="5MetkqHXQ_dfsR7PixhB-10" value="&lt;div style=&quot;font-size: 1px&quot;&gt;&lt;font style=&quot;font-size:16.93px;font-family:SimSun;color:#000000;direction:ltr;letter-spacing:0px;line-height:120%;opacity:1&quot;&gt;&lt;b&gt;Server&lt;br/&gt;&lt;/b&gt;&lt;/font&gt;&lt;/div&gt;" style="text;vsdxID=6;fillColor=none;gradientColor=none;points=[[0.5,1.67,0],[0.5,2.33,0],[0.5,3,0],[0.5,3.78,0],[0.5,4.33,0],[0.5,5.44,0],[0.5,6,0],[0.5,6.56,0],[0.5,7.33,0],[0.5,8.22,0],[0.5,8.78,0],[0.5,9.33,0],[0.5,10.22,0],[0.5,11,0],[0.5,11.29,0],[0.5,11.29,0],[0.5,11.29,0],[0.5,11.29,0],[0.5,11.29,0],[0.5,11.29,0],[0.5,11.29,0],[0.5,11.29,0],[0.5,11.29,0],[0.5,11.29,0],[0.5,11.29,0],[0.5,11.29,0],[0.5,11.29,0],[0.5,11.29,0],[0.5,11.29,0],[0.5,11.29,0],[0.5,11.29,0],[0.5,11.29,0],[0.5,11.29,0],[0.5,11.29,0],[0.5,11.29,0],[0.5,11.29,0],[0.5,11.29,0],[0.5,11.29,0],[0.5,11.29,0]];labelBackgroundColor=none;rounded=0;html=1;whiteSpace=wrap;verticalAlign=middle;align=center;strokeColor=none;;html=1;" vertex="1" parent="5MetkqHXQ_dfsR7PixhB-6"><mxGeometry width="72" height="36" as="geometry"/></mxCell><UserObject label="" tags="连接线" id="5MetkqHXQ_dfsR7PixhB-11"><mxCell style="vsdxID=15;edgeStyle=none;startArrow=none;endArrow=block;startSize=2;endSize=7;spacingTop=0;spacingBottom=0;spacingLeft=0;spacingRight=0;verticalAlign=middle;html=1;labelBackgroundColor=#ffffff;rounded=0;" edge="1" parent="1"><mxGeometry relative="1" as="geometry"><mxPoint as="offset"/><Array as="points"/><mxPoint x="60" y="668" as="sourcePoint"/><mxPoint x="780" y="848" as="targetPoint"/></mxGeometry></mxCell></UserObject><UserObject label="&lt;div style=&quot;font-size: 1px&quot;&gt;&lt;font style=&quot;font-size:11.29px;font-family:SimSun;color:#000000;direction:ltr;letter-spacing:0px;line-height:120%;opacity:1&quot;&gt;5.浏览器发送第二次请求: 携带Cookie对象,&lt;br/&gt;&lt;/font&gt;&lt;/div&gt;" tags="背景" id="5MetkqHXQ_dfsR7PixhB-12"><mxCell style="verticalAlign=middle;align=left;vsdxID=16;fillColor=none;gradientColor=none;shape=stencil(nVBbDsIgEDzN/iN7BKz3aALIRgoE8HV7IRvT2igf/s3szL4GUBU3JwNSlJrjxdxJVwd4BCkpOJOpNgQ4ASobsznneA2aeZq7s6Ml3vqEB/eJ3iHFk9lBMD99s77Fv8wfVk/h5wmDmcP1Daw/WvKeI9rq+0xaifPE6QU=);dashed=1;points=[];labelBackgroundColor=none;rounded=0;html=1;whiteSpace=wrap;" vertex="1" parent="1"><mxGeometry x="220" y="698" width="300" height="100" as="geometry"/></mxCell></UserObject><UserObject label="&lt;div style=&quot;font-size: 1px&quot;&gt;&lt;p style=&quot;align:left;margin-left:0;margin-right:0;margin-top:0px;margin-bottom:0px;text-indent:0;valign:middle;direction:ltr;&quot;&gt;&lt;font style=&quot;font-size:14.11px;font-family:SimSun;color:#000000;direction:ltr;letter-spacing:0px;line-height:120%;opacity:1&quot;&gt;3.并将Cookie对象返回给浏览器,CooKie对象默认保存在浏览器的缓存中,浏览器关闭,cookie对象销毁  &lt;/font&gt;&lt;font style=&quot;font-size:14.11px;font-family:Themed;color:#000000;direction:ltr;letter-spacing:0px;line-height:120%;opacity:1&quot;&gt;JSESSIONID=&lt;/font&gt;&lt;font style=&quot;font-size:14.11px;font-family:Themed;color:#ff0000;direction:ltr;letter-spacing:0px;line-height:120%;opacity:1&quot;&gt;0AA64C9C941D30B46DEF47F23E1591B3&lt;/font&gt;&lt;font style=&quot;font-size:11.29px;font-family:Themed;color:#000000;direction:ltr;letter-spacing:0px;line-height:120%;opacity:1&quot;&gt;&lt;br/&gt;&lt;/font&gt;&lt;/p&gt;&lt;/div&gt;" tags="背景" id="5MetkqHXQ_dfsR7PixhB-13"><mxCell style="verticalAlign=middle;align=left;vsdxID=19;fillColor=none;gradientColor=none;shape=stencil(nVBbDsIgEDzN/iN7BKz3aALIRgoE8HV7IRvT2igf/s3szL4GUBU3JwNSlJrjxdxJVwd4BCkpOJOpNgQ4ASobsznneA2aeZq7s6Ml3vqEB/eJ3iHFk9lBMD99s77Fv8wfVk/h5wmDmcP1Daw/WvKeI9rq+0xaifPE6QU=);dashed=1;points=[];labelBackgroundColor=none;rounded=0;html=1;whiteSpace=wrap;" vertex="1" parent="1"><mxGeometry x="220" y="508" width="300" height="100" as="geometry"/></mxCell></UserObject><UserObject label="&lt;div style=&quot;font-size: 1px&quot;&gt;&lt;p style=&quot;align:left;margin-left:0;margin-right:0;margin-top:0px;margin-bottom:0px;text-indent:0;valign:middle;direction:ltr;&quot;&gt;&lt;font style=&quot;font-size:14.11px;font-family:SimSun;color:#000000;direction:ltr;letter-spacing:0px;line-height:120%;opacity:1&quot;&gt;1.浏览器第一次向服务器发送请求&lt;/font&gt;&lt;font style=&quot;font-size:11.29px;font-family:Themed;color:#000000;direction:ltr;letter-spacing:0px;line-height:120%;opacity:1&quot;&gt;&lt;br/&gt;&lt;/font&gt;&lt;/p&gt;&lt;/div&gt;" tags="背景" id="5MetkqHXQ_dfsR7PixhB-14"><mxCell style="verticalAlign=middle;align=left;vsdxID=22;fillColor=none;gradientColor=none;shape=stencil(nVBbDsIgEDzN/iN7BKz3aALIRgoE8HV7IRvT2igf/s3szL4GUBU3JwNSlJrjxdxJVwd4BCkpOJOpNgQ4ASobsznneA2aeZq7s6Ml3vqEB/eJ3iHFk9lBMD99s77Fv8wfVk/h5wmDmcP1Daw/WvKeI9rq+0xaifPE6QU=);dashed=1;points=[];labelBackgroundColor=none;rounded=0;html=1;whiteSpace=wrap;" vertex="1" parent="1"><mxGeometry x="220" y="178" width="300" height="100" as="geometry"/></mxCell></UserObject><UserObject label="&lt;div style=&quot;font-size: 1px&quot;&gt;&lt;/div&gt;" tags="连接线" id="5MetkqHXQ_dfsR7PixhB-15"><mxCell style="vsdxID=14;edgeStyle=none;dashed=1;startArrow=none;endArrow=open;startSize=2;endSize=7;spacingTop=0;spacingBottom=0;spacingLeft=0;spacingRight=0;verticalAlign=middle;html=1;labelBackgroundColor=#ffffff;rounded=0;align=center;exitX=0.5;exitY=11;exitDx=0;exitDy=0;exitPerimeter=0;entryX=0.5;entryY=15.777777777777779;entryDx=0;entryDy=0;entryPerimeter=0;" edge="1" parent="1" source="5MetkqHXQ_dfsR7PixhB-6" target="5MetkqHXQ_dfsR7PixhB-1"><mxGeometry relative="1" as="geometry"><mxPoint y="-1" as="offset"/><Array as="points"/></mxGeometry></mxCell></UserObject><UserObject label="&lt;div style=&quot;font-size: 1px&quot;&gt;&lt;p style=&quot;align:left;margin-left:0;margin-right:0;margin-top:0px;margin-bottom:0px;text-indent:0;valign:top;direction:ltr;&quot;&gt;&lt;font style=&quot;font-size:14.11px;font-family:SimSun;color:#000000;direction:ltr;letter-spacing:0px;line-height:120%;opacity:1&quot;&gt;2.服务端生成sesssion对象并保存在session列表中,同时生成session对象对应的Cookie对象,&lt;br/&gt;&lt;/font&gt;&lt;font style=&quot;font-size:14.11px;font-family:Themed;color:#000000;direction:ltr;letter-spacing:0px;line-height:120%;opacity:1&quot;&gt;这个cookie对象很特殊,Cookie对象的value值是对应session的k部分,而name是JSESSIONID,&lt;/font&gt;&lt;font style=&quot;font-size:14.11px;font-family:Themed;color:#ff0000;direction:ltr;letter-spacing:0px;line-height:120%;opacity:1&quot;&gt;&lt;br/&gt;&lt;br/&gt;&lt;/font&gt;&lt;font style=&quot;font-size:14.11px;font-family:Themed;color:#ff0000;direction:ltr;letter-spacing:0px;line-height:120%;opacity:1&quot;&gt;0AA64C9C941D30B46DEF47F23E1591B3&lt;/font&gt;&lt;font style=&quot;font-size:14.11px;font-family:Themed;color:#000000;direction:ltr;letter-spacing:0px;line-height:120%;opacity:1&quot;&gt; = org.apache.catalina.session.StandardSessionFacade@28c3e94c&lt;/font&gt;&lt;font style=&quot;font-size:14.11px;font-family:Themed;color:#000000;direction:ltr;letter-spacing:0px;line-height:120%;opacity:1&quot;&gt;&lt;br/&gt;&lt;/font&gt;&lt;font style=&quot;font-size:14.11px;font-family:Themed;color:#000000;direction:ltr;letter-spacing:0px;line-height:120%;opacity:1&quot;&gt;JSESSIONID=&lt;/font&gt;&lt;font style=&quot;font-size:14.11px;font-family:Themed;color:#ff0000;direction:ltr;letter-spacing:0px;line-height:120%;opacity:1&quot;&gt;0AA64C9C941D30B46DEF47F23E1591B3&lt;/font&gt;&lt;font style=&quot;font-size:14.11px;font-family:Themed;color:#000000;direction:ltr;letter-spacing:0px;line-height:120%;opacity:1&quot;&gt;&lt;br/&gt;&lt;/font&gt;&lt;/p&gt;&lt;/div&gt;" tags="连接线" id="5MetkqHXQ_dfsR7PixhB-16"><mxCell style="vsdxID=12;edgeStyle=none;startArrow=none;endArrow=block;startSize=2;endSize=7;spacingTop=0;spacingBottom=0;spacingLeft=0;spacingRight=0;verticalAlign=top;html=1;labelBackgroundColor=#ffffff;rounded=0;align=left;exitX=0.5;exitY=4.333333333333333;exitDx=0;exitDy=0;exitPerimeter=0;entryX=0.5;entryY=11;entryDx=0;entryDy=0;entryPerimeter=0;" edge="1" parent="1" source="5MetkqHXQ_dfsR7PixhB-6" target="5MetkqHXQ_dfsR7PixhB-6"><mxGeometry relative="1" as="geometry"><mxPoint x="-16" as="offset"/><Array as="points"><mxPoint x="803.4" y="246"/><mxPoint x="803.4" y="486"/></Array></mxGeometry></mxCell></UserObject><UserObject label="&lt;div style=&quot;font-size: 1px&quot;&gt;&lt;/div&gt;" tags="连接线" id="5MetkqHXQ_dfsR7PixhB-17"><mxCell style="vsdxID=11;edgeStyle=none;startArrow=none;endArrow=block;startSize=2;endSize=7;spacingTop=0;spacingBottom=0;spacingLeft=0;spacingRight=0;verticalAlign=middle;html=1;labelBackgroundColor=#ffffff;rounded=0;align=center;exitX=0.5;exitY=4.333333333333333;exitDx=0;exitDy=0;exitPerimeter=0;entryX=0.5;entryY=4.333333333333333;entryDx=0;entryDy=0;entryPerimeter=0;" edge="1" parent="1" source="5MetkqHXQ_dfsR7PixhB-1" target="5MetkqHXQ_dfsR7PixhB-6"><mxGeometry relative="1" as="geometry"><mxPoint x="-1" as="offset"/><Array as="points"/></mxGeometry></mxCell></UserObject><UserObject label="&lt;div style=&quot;font-size: 1px&quot;&gt;&lt;p style=&quot;align:left;margin-left:0;margin-right:0;margin-top:0px;margin-bottom:0px;text-indent:0;valign:top;direction:ltr;&quot;&gt;&lt;font style=&quot;font-size:14.11px;font-family:SimSun;color:#000000;direction:ltr;letter-spacing:0px;line-height:120%;opacity:1&quot;&gt;6.服务器接收到Cookie,验证该Cookie的name确实是:JSESSIONID,然后获取该Cookie的value,&lt;br/&gt;通过该value去session列表中检索对应的HttpSession对象;&lt;br/&gt;&lt;/font&gt;&lt;/p&gt;&lt;/div&gt;" tags="连接线" id="5MetkqHXQ_dfsR7PixhB-18"><mxCell style="vsdxID=17;edgeStyle=none;startArrow=none;endArrow=block;startSize=2;endSize=7;spacingTop=0;spacingBottom=0;spacingLeft=0;spacingRight=0;verticalAlign=top;html=1;labelBackgroundColor=#ffffff;rounded=0;align=left;exitX=0.5;exitY=19.333333333333332;exitDx=0;exitDy=0;exitPerimeter=0;entryX=0.5;entryY=21.444444444444443;entryDx=0;entryDy=0;entryPerimeter=0;" edge="1" parent="1" source="5MetkqHXQ_dfsR7PixhB-6" target="5MetkqHXQ_dfsR7PixhB-6"><mxGeometry relative="1" as="geometry"><mxPoint x="-16" as="offset"/><Array as="points"><mxPoint x="803.4" y="786"/><mxPoint x="803.4" y="862"/></Array></mxGeometry></mxCell></UserObject></root></mxGraphModel></diagram><diagram id="Bjmyv9m9-6NJ1rn_ZuhM" name="hearbeat"><mxGraphModel dx="1022" dy="600" grid="1" gridSize="10" guides="1" tooltips="1" connect="1" arrows="1" fold="1" page="1" pageScale="1" pageWidth="827" pageHeight="1169" math="0" shadow="0"><root><mxCell id="0"/><mxCell id="1" parent="0"/><UserObject label="" tags="背景" id="tR4K7mGFeOnEfosAlGT4-1"><mxCell style="vsdxID=1;fillColor=#a5a5a5;gradientColor=none;shape=stencil(nZBLDoAgDERP0z3SIyjew0SURgSD+Lu9kMZoXLhwN9O+tukAlrNpJg1SzDH4QW/URgNYgZTkjA4UkwJUgGXng+6DX1zLfmoymdXo17xh5zmRJ6Q42BWCfc2oJfdAr+Yv+AP9Cb7OJ3H/2JG1HNGz/84klThPVCc=);strokeColor=#ffffff;points=[[0.5,7.79,0],[0.5,8.14,0],[0.5,8.71,0],[0.5,9.21,0],[0.5,9.64,0],[0.5,9.93,0],[0.5,10.5,0],[0.5,11,0],[0.5,11.43,0],[0.5,11.71,0],[0.5,12.36,0],[0.5,12.79,0],[0.5,13.21,0],[0.5,13.71,0],[0.5,14.14,0],[0.5,14.57,0],[0.5,15.07,0],[0.5,15.5,0],[0.5,16,0],[0.5,16.43,0],[0.5,16.86,0],[0.5,17.36,0],[0.5,17.79,0],[0.5,18.21,0],[0.5,18.71,0]];labelBackgroundColor=none;rounded=0;html=1;whiteSpace=wrap;" parent="1" vertex="1"><mxGeometry x="100" y="25" width="112" height="56" as="geometry"/></mxCell></UserObject><mxCell id="tR4K7mGFeOnEfosAlGT4-2" style="vsdxID=2;fillColor=#a5a5a5;gradientColor=none;shape=stencil(nZBLDoAgDERP0z3SIyjew0SURgSD+Lu9kMZoXLhwN9O+tukAlrNpJg1SzDH4QW/URgNYgZTkjA4UkwJUgGXng+6DX1zLfmoymdXo17xh5zmRJ6Q42BWCfc2oJfdAr+Yv+AP9Cb7OJ3H/2JG1HNGz/84klThPVCc=);strokeColor=#ffffff;points=[[0.5,1.67,0],[0.5,2.33,0],[0.5,3,0],[0.5,3.78,0],[0.5,4.33,0],[0.5,5.44,0],[0.5,6,0],[0.5,6.56,0],[0.5,7.33,0],[0.5,8.22,0],[0.5,8.78,0],[0.5,9.33,0],[0.5,10.22,0],[0.5,11,0],[0.5,11.29,0],[0.5,11.29,0],[0.5,11.29,0],[0.5,11.29,0],[0.5,11.29,0],[0.5,11.29,0],[0.5,11.29,0],[0.5,11.29,0],[0.5,11.29,0],[0.5,11.29,0],[0.5,11.29,0],[0.5,11.29,0],[0.5,11.29,0],[0.5,11.29,0],[0.5,11.29,0],[0.5,11.29,0],[0.5,11.29,0],[0.5,11.29,0],[0.5,11.29,0],[0.5,11.29,0],[0.5,11.29,0],[0.5,11.29,0],[0.5,11.29,0],[0.5,11.29,0],[0.5,11.29,0]];labelBackgroundColor=none;rounded=0;html=1;whiteSpace=wrap;" parent="tR4K7mGFeOnEfosAlGT4-1" vertex="1"><mxGeometry x="20" y="10" width="72" height="36" as="geometry"/></mxCell><mxCell id="tR4K7mGFeOnEfosAlGT4-3" style="vsdxID=3;fillColor=#a5a5a5;gradientColor=none;shape=stencil(1VFBDsIgEHwNRxKE+IJa/7GxSyFiaRa07e+FLImtB+/eZnZmdgkjTJcczCi0SpniHRc/ZCfMRWjtJ4fkc0HC9MJ0NhKOFJ/TwHyG6qzoEV91w8q5s6oRrTamJ8X8yl6gW9GoeZuVtgP9vUitElafJMUM2cfpEA1AI8pyRNoAYwuylBbEeTf+h2cV8Plm60Pglvb6dy1lxJWa/g0=);strokeColor=#ffffff;points=[[0.5,1.67,0],[0.5,2.33,0],[0.5,3,0],[0.5,3.78,0],[0.5,4.33,0],[0.5,5.44,0],[0.5,6,0],[0.5,6.56,0],[0.5,7.33,0],[0.5,8.22,0],[0.5,8.78,0],[0.5,9.33,0],[0.5,10.22,0],[0.5,11,0],[0.5,11.29,0],[0.5,11.29,0],[0.5,11.29,0],[0.5,11.29,0],[0.5,11.29,0],[0.5,11.29,0],[0.5,11.29,0],[0.5,11.29,0],[0.5,11.29,0],[0.5,11.29,0],[0.5,11.29,0],[0.5,11.29,0],[0.5,11.29,0],[0.5,11.29,0],[0.5,11.29,0],[0.5,11.29,0],[0.5,11.29,0],[0.5,11.29,0],[0.5,11.29,0],[0.5,11.29,0],[0.5,11.29,0],[0.5,11.29,0],[0.5,11.29,0],[0.5,11.29,0],[0.5,11.29,0]];labelBackgroundColor=none;rounded=0;html=1;whiteSpace=wrap;" parent="tR4K7mGFeOnEfosAlGT4-1" vertex="1"><mxGeometry x="44" y="-5" width="24" height="1" as="geometry"/></mxCell><mxCell id="tR4K7mGFeOnEfosAlGT4-4" style="vsdxID=5;edgeStyle=none;dashed=1;startArrow=none;endArrow=none;startSize=5;endSize=5;strokeColor=#919191;spacingTop=0;spacingBottom=0;spacingLeft=0;spacingRight=0;verticalAlign=middle;html=1;labelBackgroundColor=#ffffff;rounded=0;" parent="tR4K7mGFeOnEfosAlGT4-1" edge="1"><mxGeometry relative="1" as="geometry"><Array as="points"/><mxPoint x="56" y="56" as="sourcePoint"/><mxPoint x="56" y="1516" as="targetPoint"/></mxGeometry></mxCell><mxCell id="tR4K7mGFeOnEfosAlGT4-5" value="&lt;div style=&quot;font-size: 1px&quot;&gt;&lt;font style=&quot;font-size:19.76px;font-family:SimSun;color:#ffffff;direction:ltr;letter-spacing:0px;line-height:120%;opacity:1&quot;&gt;&lt;b&gt;Client&lt;br/&gt;&lt;/b&gt;&lt;/font&gt;&lt;/div&gt;" style="text;vsdxID=1;fillColor=none;gradientColor=none;strokeColor=none;points=[[0.5,7.79,0],[0.5,8.14,0],[0.5,8.71,0],[0.5,9.21,0],[0.5,9.64,0],[0.5,9.93,0],[0.5,10.5,0],[0.5,11,0],[0.5,11.43,0],[0.5,11.71,0],[0.5,12.36,0],[0.5,12.79,0],[0.5,13.21,0],[0.5,13.71,0],[0.5,14.14,0],[0.5,14.57,0],[0.5,15.07,0],[0.5,15.5,0],[0.5,16,0],[0.5,16.43,0],[0.5,16.86,0],[0.5,17.36,0],[0.5,17.79,0],[0.5,18.21,0],[0.5,18.71,0]];labelBackgroundColor=none;rounded=0;html=1;whiteSpace=wrap;verticalAlign=middle;align=center;;html=1;" parent="tR4K7mGFeOnEfosAlGT4-1" vertex="1"><mxGeometry width="112" height="56" as="geometry"/></mxCell><UserObject label="" tags="背景" id="tR4K7mGFeOnEfosAlGT4-6"><mxCell style="vsdxID=6;fillColor=#a5a5a5;gradientColor=none;shape=stencil(nZBLDoAgDERP0z3SIyjew0SURgSD+Lu9kMZoXLhwN9O+tukAlrNpJg1SzDH4QW/URgNYgZTkjA4UkwJUgGXng+6DX1zLfmoymdXo17xh5zmRJ6Q42BWCfc2oJfdAr+Yv+AP9Cb7OJ3H/2JG1HNGz/84klThPVCc=);strokeColor=#ffffff;points=[[0.5,7.79,0],[0.5,8.14,0],[0.5,8.71,0],[0.5,9.21,0],[0.5,9.64,0],[0.5,9.93,0],[0.5,10.5,0],[0.5,11,0],[0.5,11.43,0],[0.5,11.71,0],[0.5,12.36,0],[0.5,12.79,0],[0.5,13.21,0],[0.5,13.71,0],[0.5,14.14,0],[0.5,14.57,0],[0.5,15.07,0],[0.5,15.5,0],[0.5,16,0],[0.5,16.43,0],[0.5,16.86,0],[0.5,17.36,0],[0.5,17.79,0],[0.5,18.21,0],[0.5,18.71,0]];labelBackgroundColor=none;rounded=0;html=1;whiteSpace=wrap;" parent="1" vertex="1"><mxGeometry x="740" y="25" width="112" height="56" as="geometry"/></mxCell></UserObject><mxCell id="tR4K7mGFeOnEfosAlGT4-7" style="vsdxID=7;fillColor=#a5a5a5;gradientColor=none;shape=stencil(nZBLDoAgDERP0z3SIyjew0SURgSD+Lu9kMZoXLhwN9O+tukAlrNpJg1SzDH4QW/URgNYgZTkjA4UkwJUgGXng+6DX1zLfmoymdXo17xh5zmRJ6Q42BWCfc2oJfdAr+Yv+AP9Cb7OJ3H/2JG1HNGz/84klThPVCc=);strokeColor=#ffffff;points=[[0.5,1.67,0],[0.5,2.33,0],[0.5,3,0],[0.5,3.78,0],[0.5,4.33,0],[0.5,5.44,0],[0.5,6,0],[0.5,6.56,0],[0.5,7.33,0],[0.5,8.22,0],[0.5,8.78,0],[0.5,9.33,0],[0.5,10.22,0],[0.5,11,0],[0.5,11.29,0],[0.5,11.29,0],[0.5,11.29,0],[0.5,11.29,0],[0.5,11.29,0],[0.5,11.29,0],[0.5,11.29,0],[0.5,11.29,0],[0.5,11.29,0],[0.5,11.29,0],[0.5,11.29,0],[0.5,11.29,0],[0.5,11.29,0],[0.5,11.29,0],[0.5,11.29,0],[0.5,11.29,0],[0.5,11.29,0],[0.5,11.29,0],[0.5,11.29,0],[0.5,11.29,0],[0.5,11.29,0],[0.5,11.29,0],[0.5,11.29,0],[0.5,11.29,0],[0.5,11.29,0]];labelBackgroundColor=none;rounded=0;html=1;whiteSpace=wrap;" parent="tR4K7mGFeOnEfosAlGT4-6" vertex="1"><mxGeometry x="20" y="10" width="72" height="36" as="geometry"/></mxCell><mxCell id="tR4K7mGFeOnEfosAlGT4-8" style="vsdxID=8;fillColor=#a5a5a5;gradientColor=none;shape=stencil(1VFBDsIgEHwNRxKE+IJa/7GxSyFiaRa07e+FLImtB+/eZnZmdgkjTJcczCi0SpniHRc/ZCfMRWjtJ4fkc0HC9MJ0NhKOFJ/TwHyG6qzoEV91w8q5s6oRrTamJ8X8yl6gW9GoeZuVtgP9vUitElafJMUM2cfpEA1AI8pyRNoAYwuylBbEeTf+h2cV8Plm60Pglvb6dy1lxJWa/g0=);strokeColor=#ffffff;points=[[0.5,1.67,0],[0.5,2.33,0],[0.5,3,0],[0.5,3.78,0],[0.5,4.33,0],[0.5,5.44,0],[0.5,6,0],[0.5,6.56,0],[0.5,7.33,0],[0.5,8.22,0],[0.5,8.78,0],[0.5,9.33,0],[0.5,10.22,0],[0.5,11,0],[0.5,11.29,0],[0.5,11.29,0],[0.5,11.29,0],[0.5,11.29,0],[0.5,11.29,0],[0.5,11.29,0],[0.5,11.29,0],[0.5,11.29,0],[0.5,11.29,0],[0.5,11.29,0],[0.5,11.29,0],[0.5,11.29,0],[0.5,11.29,0],[0.5,11.29,0],[0.5,11.29,0],[0.5,11.29,0],[0.5,11.29,0],[0.5,11.29,0],[0.5,11.29,0],[0.5,11.29,0],[0.5,11.29,0],[0.5,11.29,0],[0.5,11.29,0],[0.5,11.29,0],[0.5,11.29,0]];labelBackgroundColor=none;rounded=0;html=1;whiteSpace=wrap;" parent="tR4K7mGFeOnEfosAlGT4-6" vertex="1"><mxGeometry x="44" y="-5" width="24" height="1" as="geometry"/></mxCell><mxCell id="tR4K7mGFeOnEfosAlGT4-9" style="vsdxID=10;edgeStyle=none;dashed=1;startArrow=none;endArrow=none;startSize=5;endSize=5;strokeColor=#919191;spacingTop=0;spacingBottom=0;spacingLeft=0;spacingRight=0;verticalAlign=middle;html=1;labelBackgroundColor=none;rounded=0;" parent="tR4K7mGFeOnEfosAlGT4-6" edge="1"><mxGeometry relative="1" as="geometry"><Array as="points"/><mxPoint x="56" y="56" as="sourcePoint"/><mxPoint x="56" y="1516" as="targetPoint"/></mxGeometry></mxCell><mxCell id="tR4K7mGFeOnEfosAlGT4-10" value="&lt;div style=&quot;font-size: 1px&quot;&gt;&lt;p style=&quot;align:center;margin-left:0;margin-right:0;margin-top:0px;margin-bottom:0px;text-indent:0;valign:middle;direction:ltr;&quot;&gt;&lt;font style=&quot;font-size:19.76px;font-family:Calibri;color:#FFFFFF;direction:ltr;letter-spacing:0px;line-height:120%;opacity:1&quot;&gt;&lt;b&gt;Server&lt;br/&gt;&lt;/b&gt;&lt;/font&gt;&lt;/p&gt;&lt;/div&gt;" style="text;vsdxID=6;fillColor=none;gradientColor=none;strokeColor=none;points=[[0.5,7.79,0],[0.5,8.14,0],[0.5,8.71,0],[0.5,9.21,0],[0.5,9.64,0],[0.5,9.93,0],[0.5,10.5,0],[0.5,11,0],[0.5,11.43,0],[0.5,11.71,0],[0.5,12.36,0],[0.5,12.79,0],[0.5,13.21,0],[0.5,13.71,0],[0.5,14.14,0],[0.5,14.57,0],[0.5,15.07,0],[0.5,15.5,0],[0.5,16,0],[0.5,16.43,0],[0.5,16.86,0],[0.5,17.36,0],[0.5,17.79,0],[0.5,18.21,0],[0.5,18.71,0]];labelBackgroundColor=none;rounded=0;html=1;whiteSpace=wrap;verticalAlign=middle;align=center;;html=1;" parent="tR4K7mGFeOnEfosAlGT4-6" vertex="1"><mxGeometry width="112" height="56" as="geometry"/></mxCell><UserObject label="" tags="背景" id="tR4K7mGFeOnEfosAlGT4-11"><mxCell style="vsdxID=12;edgeStyle=none;startArrow=none;endArrow=none;startSize=5;endSize=5;strokeColor=#65993a;spacingTop=0;spacingBottom=0;spacingLeft=0;spacingRight=0;verticalAlign=middle;html=1;labelBackgroundColor=none;rounded=0;" parent="1" source="tR4K7mGFeOnEfosAlGT4-1" target="tR4K7mGFeOnEfosAlGT4-1" edge="1"><mxGeometry relative="1" as="geometry"><Array as="points"><mxPoint x="156" y="261"/></Array></mxGeometry></mxCell></UserObject><UserObject label="&lt;div style=&quot;font-size: 1px&quot;&gt;&lt;font style=&quot;font-size:11.29px;font-family:SimSun;color:#000000;direction:ltr;letter-spacing:0px;line-height:120%;opacity:1&quot;&gt;3.启动一个线程通过接口发送数据包&lt;br/&gt;&lt;/font&gt;&lt;/div&gt;" tags="连接线" id="tR4K7mGFeOnEfosAlGT4-12"><mxCell style="vsdxID=14;edgeStyle=none;startArrow=none;endArrow=block;startSize=2;endSize=7;strokeColor=#65993a;spacingTop=0;spacingBottom=0;spacingLeft=0;spacingRight=0;verticalAlign=middle;html=1;labelBackgroundColor=#ffffff;rounded=0;align=center;exitX=0.5;exitY=4.214285714285714;exitDx=0;exitDy=0;exitPerimeter=0;entryX=0.5;entryY=4.214285714285714;entryDx=0;entryDy=0;entryPerimeter=0;" parent="1" source="tR4K7mGFeOnEfosAlGT4-1" target="tR4K7mGFeOnEfosAlGT4-6" edge="1"><mxGeometry relative="1" as="geometry"><mxPoint as="offset"/><Array as="points"/></mxGeometry></mxCell></UserObject><UserObject label="" tags="背景" id="tR4K7mGFeOnEfosAlGT4-13"><mxCell style="vsdxID=15;edgeStyle=none;startArrow=none;endArrow=none;startSize=5;endSize=5;strokeColor=#65993a;spacingTop=0;spacingBottom=0;spacingLeft=0;spacingRight=0;verticalAlign=middle;html=1;labelBackgroundColor=none;rounded=0;" parent="1" source="tR4K7mGFeOnEfosAlGT4-6" target="tR4K7mGFeOnEfosAlGT4-6" edge="1"><mxGeometry relative="1" as="geometry"><Array as="points"><mxPoint x="796" y="361"/></Array></mxGeometry></mxCell></UserObject><mxCell id="tR4K7mGFeOnEfosAlGT4-14" parent="1" vertex="1"><mxGeometry x="802" y="793" as="geometry"/></mxCell><UserObject label="&lt;div style=&quot;font-size: 1px&quot;&gt;&lt;font style=&quot;font-size:11.29px;font-family:SimSun;color:#000000;direction:ltr;letter-spacing:0px;line-height:120%;opacity:1&quot;&gt;8.如果在规定的时间内没有接收到客户端发送了的数据,&lt;br/&gt;就会断开与客户端的连接;如果在规定时间还是没有接收&lt;br/&gt;到数据,就先休息一会,再去查看是否有数据,如果一直没有&lt;br/&gt;数据,抛出异常;&lt;br/&gt;&lt;/font&gt;&lt;/div&gt;" tags="连接线" id="tR4K7mGFeOnEfosAlGT4-15"><mxCell style="vsdxID=28;edgeStyle=none;startArrow=none;endArrow=block;startSize=2;endSize=7;strokeColor=#65993a;spacingTop=0;spacingBottom=0;spacingLeft=0;spacingRight=0;verticalAlign=middle;html=1;labelBackgroundColor=#ffffff;rounded=0;align=center;exitX=0.5;exitY=11.714285714285714;exitDx=0;exitDy=0;exitPerimeter=0;" parent="1" source="tR4K7mGFeOnEfosAlGT4-6" target="tR4K7mGFeOnEfosAlGT4-14" edge="1"><mxGeometry relative="1" as="geometry"><mxPoint x="-22" y="3" as="offset"/><Array as="points"><mxPoint x="827.4" y="681"/><mxPoint x="827.4" y="793"/></Array></mxGeometry></mxCell></UserObject><UserObject label="" tags="背景" id="tR4K7mGFeOnEfosAlGT4-16"><mxCell style="vsdxID=27;edgeStyle=none;startArrow=none;endArrow=none;startSize=5;endSize=5;strokeColor=#65993a;spacingTop=0;spacingBottom=0;spacingLeft=0;spacingRight=0;verticalAlign=middle;html=1;labelBackgroundColor=none;rounded=0;" parent="1" source="tR4K7mGFeOnEfosAlGT4-6" target="tR4K7mGFeOnEfosAlGT4-6" edge="1"><mxGeometry relative="1" as="geometry"><Array as="points"><mxPoint x="796" y="793"/></Array></mxGeometry></mxCell></UserObject><UserObject label="&lt;div style=&quot;font-size: 1px&quot;&gt;&lt;font style=&quot;font-size:11.29px;font-family:SimSun;color:#000000;direction:ltr;letter-spacing:0px;line-height:120%;opacity:1&quot;&gt;7.定时检查距离上次发送数据包的上限时间,&lt;br/&gt;如果&amp;gt;=就发数据包,如果&amp;lt;就休眠一会&lt;br/&gt;&lt;/font&gt;&lt;/div&gt;" tags="连接线" id="tR4K7mGFeOnEfosAlGT4-17"><mxCell style="vsdxID=26;edgeStyle=none;startArrow=none;endArrow=block;startSize=2;endSize=7;strokeColor=#65993a;spacingTop=0;spacingBottom=0;spacingLeft=0;spacingRight=0;verticalAlign=middle;html=1;labelBackgroundColor=#ffffff;rounded=0;align=center;exitX=0.5;exitY=11.714285714285714;exitDx=0;exitDy=0;exitPerimeter=0;entryX=0.5;entryY=11.714285714285714;entryDx=0;entryDy=0;entryPerimeter=0;" parent="1" source="tR4K7mGFeOnEfosAlGT4-1" target="tR4K7mGFeOnEfosAlGT4-6" edge="1"><mxGeometry relative="1" as="geometry"><mxPoint as="offset"/><Array as="points"/></mxGeometry></mxCell></UserObject><mxCell id="tR4K7mGFeOnEfosAlGT4-18" parent="1" vertex="1"><mxGeometry x="162" y="613" as="geometry"/></mxCell><mxCell id="tR4K7mGFeOnEfosAlGT4-19" parent="1" vertex="1"><mxGeometry x="162" y="681" as="geometry"/></mxCell><UserObject label="&lt;div style=&quot;font-size: 1px&quot;&gt;&lt;font style=&quot;font-size:11.29px;font-family:SimSun;color:#000000;direction:ltr;letter-spacing:0px;line-height:120%;opacity:1&quot;&gt;制定一个机制定时发送数据包&lt;br/&gt;&lt;/font&gt;&lt;/div&gt;" tags="连接线" id="tR4K7mGFeOnEfosAlGT4-20"><mxCell style="vsdxID=25;edgeStyle=none;startArrow=none;endArrow=block;startSize=2;endSize=7;strokeColor=#65993a;spacingTop=0;spacingBottom=0;spacingLeft=0;spacingRight=0;verticalAlign=middle;html=1;labelBackgroundColor=#ffffff;rounded=0;align=center;" parent="1" source="tR4K7mGFeOnEfosAlGT4-18" target="tR4K7mGFeOnEfosAlGT4-19" edge="1"><mxGeometry relative="1" as="geometry"><mxPoint x="-16" as="offset"/><Array as="points"><mxPoint x="187.4" y="613"/><mxPoint x="187.4" y="681"/></Array></mxGeometry></mxCell></UserObject><UserObject label="" tags="背景" id="tR4K7mGFeOnEfosAlGT4-21"><mxCell style="vsdxID=24;edgeStyle=none;startArrow=none;endArrow=none;startSize=5;endSize=5;strokeColor=#65993a;spacingTop=0;spacingBottom=0;spacingLeft=0;spacingRight=0;verticalAlign=middle;html=1;labelBackgroundColor=none;rounded=0;" parent="1" source="tR4K7mGFeOnEfosAlGT4-1" target="tR4K7mGFeOnEfosAlGT4-1" edge="1"><mxGeometry relative="1" as="geometry"><Array as="points"><mxPoint x="156" y="681"/></Array></mxGeometry></mxCell></UserObject><mxCell id="tR4K7mGFeOnEfosAlGT4-22" parent="1" vertex="1"><mxGeometry x="802" y="97" as="geometry"/></mxCell><mxCell id="tR4K7mGFeOnEfosAlGT4-23" parent="1" vertex="1"><mxGeometry x="802" y="153" as="geometry"/></mxCell><UserObject label="&lt;div style=&quot;font-size: 1px&quot;&gt;&lt;font style=&quot;font-size:11.29px;font-family:SimSun;color:#000000;direction:ltr;letter-spacing:0px;line-height:120%;opacity:1&quot;&gt;1.启动服务端,新建Socket,开启一个线程等待接收数据&lt;br/&gt;&lt;/font&gt;&lt;/div&gt;" tags="连接线" id="tR4K7mGFeOnEfosAlGT4-24"><mxCell style="vsdxID=23;edgeStyle=none;startArrow=none;endArrow=block;startSize=2;endSize=7;strokeColor=#65993a;spacingTop=0;spacingBottom=0;spacingLeft=0;spacingRight=0;verticalAlign=middle;html=1;labelBackgroundColor=#ffffff;rounded=0;align=center;" parent="1" source="tR4K7mGFeOnEfosAlGT4-22" target="tR4K7mGFeOnEfosAlGT4-23" edge="1"><mxGeometry relative="1" as="geometry"><mxPoint x="-16" as="offset"/><Array as="points"><mxPoint x="827.4" y="97"/><mxPoint x="827.4" y="153"/></Array></mxGeometry></mxCell></UserObject><mxCell id="tR4K7mGFeOnEfosAlGT4-25" parent="1" vertex="1"><mxGeometry x="162" y="201" as="geometry"/></mxCell><mxCell id="tR4K7mGFeOnEfosAlGT4-26" parent="1" vertex="1"><mxGeometry x="162" y="261" as="geometry"/></mxCell><UserObject label="&lt;div style=&quot;font-size: 1px&quot;&gt;&lt;font style=&quot;font-size:11.29px;font-family:SimSun;color:#000000;direction:ltr;letter-spacing:0px;line-height:120%;opacity:1&quot;&gt;2.启动客户端,新建一个Socket&lt;br/&gt;&lt;/font&gt;&lt;/div&gt;" tags="连接线" id="tR4K7mGFeOnEfosAlGT4-27"><mxCell style="vsdxID=22;edgeStyle=none;startArrow=none;endArrow=block;startSize=2;endSize=7;strokeColor=#65993a;spacingTop=0;spacingBottom=0;spacingLeft=0;spacingRight=0;verticalAlign=middle;html=1;labelBackgroundColor=#ffffff;rounded=0;align=center;" parent="1" source="tR4K7mGFeOnEfosAlGT4-25" target="tR4K7mGFeOnEfosAlGT4-26" edge="1"><mxGeometry relative="1" as="geometry"><mxPoint x="-16" as="offset"/><Array as="points"><mxPoint x="187.4" y="201"/><mxPoint x="187.4" y="261"/></Array></mxGeometry></mxCell></UserObject><mxCell id="tR4K7mGFeOnEfosAlGT4-28" parent="1" vertex="1"><mxGeometry x="796" y="97" as="geometry"/></mxCell><UserObject label="" tags="背景" id="tR4K7mGFeOnEfosAlGT4-29"><mxCell style="vsdxID=21;edgeStyle=none;startArrow=none;endArrow=none;startSize=5;endSize=5;strokeColor=#65993a;spacingTop=0;spacingBottom=0;spacingLeft=0;spacingRight=0;verticalAlign=middle;html=1;labelBackgroundColor=none;rounded=0;" parent="1" source="tR4K7mGFeOnEfosAlGT4-6" target="tR4K7mGFeOnEfosAlGT4-28" edge="1"><mxGeometry relative="1" as="geometry"><Array as="points"><mxPoint x="796" y="153"/></Array></mxGeometry></mxCell></UserObject><mxCell id="tR4K7mGFeOnEfosAlGT4-30" parent="1" vertex="1"><mxGeometry x="162" y="413" as="geometry"/></mxCell><mxCell id="tR4K7mGFeOnEfosAlGT4-31" parent="1" vertex="1"><mxGeometry x="162" y="533" as="geometry"/></mxCell><UserObject label="&lt;div style=&quot;font-size: 1px&quot;&gt;&lt;font style=&quot;font-size:11.29px;font-family:SimSun;color:#000000;direction:ltr;letter-spacing:0px;line-height:120%;opacity:1&quot;&gt;6.启动一个线程通过接口接收服务端返回的信息&lt;br/&gt;&lt;/font&gt;&lt;/div&gt;" tags="连接线" id="tR4K7mGFeOnEfosAlGT4-32"><mxCell style="vsdxID=19;edgeStyle=none;startArrow=none;endArrow=block;startSize=2;endSize=7;strokeColor=#65993a;spacingTop=0;spacingBottom=0;spacingLeft=0;spacingRight=0;verticalAlign=middle;html=1;labelBackgroundColor=#ffffff;rounded=0;align=center;" parent="1" source="tR4K7mGFeOnEfosAlGT4-30" target="tR4K7mGFeOnEfosAlGT4-31" edge="1"><mxGeometry relative="1" as="geometry"><mxPoint x="-16" as="offset"/><Array as="points"><mxPoint x="187.4" y="413"/><mxPoint x="187.4" y="533"/></Array></mxGeometry></mxCell></UserObject><UserObject label="" tags="背景" id="tR4K7mGFeOnEfosAlGT4-33"><mxCell style="vsdxID=18;edgeStyle=none;startArrow=none;endArrow=none;startSize=5;endSize=5;strokeColor=#65993a;spacingTop=0;spacingBottom=0;spacingLeft=0;spacingRight=0;verticalAlign=middle;html=1;labelBackgroundColor=none;rounded=0;" parent="1" source="tR4K7mGFeOnEfosAlGT4-1" target="tR4K7mGFeOnEfosAlGT4-1" edge="1"><mxGeometry relative="1" as="geometry"><Array as="points"><mxPoint x="156" y="541"/></Array></mxGeometry></mxCell></UserObject><UserObject label="&lt;div style=&quot;font-size: 1px&quot;&gt;&lt;font style=&quot;font-size:11.29px;font-family:SimSun;color:#000000;direction:ltr;letter-spacing:0px;line-height:120%;opacity:1&quot;&gt;5.将接口处理结果返回给客户端&lt;br/&gt;&lt;/font&gt;&lt;/div&gt;" tags="连接线" id="tR4K7mGFeOnEfosAlGT4-34"><mxCell style="vsdxID=17;edgeStyle=none;dashed=1;startArrow=none;endArrow=open;startSize=2;endSize=7;strokeColor=#65993a;spacingTop=0;spacingBottom=0;spacingLeft=0;spacingRight=0;verticalAlign=middle;html=1;labelBackgroundColor=#ffffff;rounded=0;align=center;exitX=0.5;exitY=6.928571428571429;exitDx=0;exitDy=0;exitPerimeter=0;entryX=0.5;entryY=6.928571428571429;entryDx=0;entryDy=0;entryPerimeter=0;" parent="1" source="tR4K7mGFeOnEfosAlGT4-6" target="tR4K7mGFeOnEfosAlGT4-1" edge="1"><mxGeometry relative="1" as="geometry"><mxPoint as="offset"/><Array as="points"/></mxGeometry></mxCell></UserObject><mxCell id="tR4K7mGFeOnEfosAlGT4-35" parent="1" vertex="1"><mxGeometry x="802" y="261" as="geometry"/></mxCell><mxCell id="tR4K7mGFeOnEfosAlGT4-36" parent="1" vertex="1"><mxGeometry x="802" y="361" as="geometry"/></mxCell><UserObject label="&lt;div style=&quot;font-size: 1px&quot;&gt;&lt;font style=&quot;font-size:11.29px;font-family:SimSun;color:#000000;direction:ltr;letter-spacing:0px;line-height:120%;opacity:1&quot;&gt;4.通过线程接收并处理数据包,得到结果&lt;br/&gt;&lt;/font&gt;&lt;/div&gt;" tags="连接线" id="tR4K7mGFeOnEfosAlGT4-37"><mxCell style="vsdxID=16;edgeStyle=none;startArrow=none;endArrow=block;startSize=2;endSize=7;strokeColor=#65993a;spacingTop=0;spacingBottom=0;spacingLeft=0;spacingRight=0;verticalAlign=middle;html=1;labelBackgroundColor=#ffffff;rounded=0;align=center;" parent="1" source="tR4K7mGFeOnEfosAlGT4-35" target="tR4K7mGFeOnEfosAlGT4-36" edge="1"><mxGeometry relative="1" as="geometry"><mxPoint x="-16" as="offset"/><Array as="points"><mxPoint x="827.4" y="261"/><mxPoint x="827.4" y="361"/></Array></mxGeometry></mxCell></UserObject></root></mxGraphModel></diagram><diagram id="HYUN8E_H32_6fWVNvCNn" name="浏览器大致架构"><mxGraphModel dx="653" dy="523" grid="1" gridSize="10" guides="1" tooltips="1" connect="1" arrows="1" fold="1" page="1" pageScale="1" pageWidth="827" pageHeight="1169" math="0" shadow="0"><root><mxCell id="0"/><mxCell id="1" parent="0"/><mxCell id="WC965Z1jm4pbxt2cNzaj-5" value="" style="edgeStyle=orthogonalEdgeStyle;rounded=0;orthogonalLoop=1;jettySize=auto;html=1;" parent="1" source="WC965Z1jm4pbxt2cNzaj-1" target="WC965Z1jm4pbxt2cNzaj-2" edge="1"><mxGeometry relative="1" as="geometry"/></mxCell><mxCell id="-7a7V4mG0scpUjR3RphD-1" value="1" style="edgeLabel;html=1;align=center;verticalAlign=middle;resizable=0;points=[];" parent="WC965Z1jm4pbxt2cNzaj-5" vertex="1" connectable="0"><mxGeometry x="-0.2533" relative="1" as="geometry"><mxPoint as="offset"/></mxGeometry></mxCell><mxCell id="-7a7V4mG0scpUjR3RphD-16" style="edgeStyle=orthogonalEdgeStyle;rounded=0;orthogonalLoop=1;jettySize=auto;html=1;" parent="1" source="WC965Z1jm4pbxt2cNzaj-1" edge="1"><mxGeometry relative="1" as="geometry"><mxPoint x="90" y="480" as="targetPoint"/></mxGeometry></mxCell><mxCell id="-7a7V4mG0scpUjR3RphD-18" value="8.返回页面有引入js脚本" style="edgeLabel;html=1;align=center;verticalAlign=middle;resizable=0;points=[];" parent="-7a7V4mG0scpUjR3RphD-16" vertex="1" connectable="0"><mxGeometry x="-0.1231" y="-3" relative="1" as="geometry"><mxPoint as="offset"/></mxGeometry></mxCell><mxCell id="WC965Z1jm4pbxt2cNzaj-1" value="用户界面" style="rounded=1;whiteSpace=wrap;html=1;fillColor=#f5f5f5;gradientColor=#b3b3b3;strokeColor=#666666;" parent="1" vertex="1"><mxGeometry x="30" y="160" width="120" height="60" as="geometry"/></mxCell><mxCell id="WC965Z1jm4pbxt2cNzaj-6" value="" style="edgeStyle=orthogonalEdgeStyle;rounded=0;orthogonalLoop=1;jettySize=auto;html=1;" parent="1" source="WC965Z1jm4pbxt2cNzaj-2" target="WC965Z1jm4pbxt2cNzaj-3" edge="1"><mxGeometry relative="1" as="geometry"/></mxCell><mxCell id="WC965Z1jm4pbxt2cNzaj-2" value="对外暴露的接口层&lt;br&gt;(接收用户的请求)" style="rounded=1;whiteSpace=wrap;html=1;fillColor=#f5f5f5;gradientColor=#b3b3b3;strokeColor=#666666;" parent="1" vertex="1"><mxGeometry x="240" y="160" width="120" height="60" as="geometry"/></mxCell><mxCell id="WC965Z1jm4pbxt2cNzaj-7" style="edgeStyle=orthogonalEdgeStyle;rounded=0;orthogonalLoop=1;jettySize=auto;html=1;entryX=-0.013;entryY=0.211;entryDx=0;entryDy=0;entryPerimeter=0;" parent="1" source="WC965Z1jm4pbxt2cNzaj-3" target="WC965Z1jm4pbxt2cNzaj-4" edge="1"><mxGeometry relative="1" as="geometry"/></mxCell><mxCell id="-7a7V4mG0scpUjR3RphD-9" style="edgeStyle=orthogonalEdgeStyle;rounded=0;orthogonalLoop=1;jettySize=auto;html=1;entryX=0.5;entryY=0;entryDx=0;entryDy=0;" parent="1" source="WC965Z1jm4pbxt2cNzaj-3" target="-7a7V4mG0scpUjR3RphD-8" edge="1"><mxGeometry relative="1" as="geometry"/></mxCell><mxCell id="WC965Z1jm4pbxt2cNzaj-3" value="网络层&lt;br&gt;(请求服务并获取数据)" style="rounded=1;whiteSpace=wrap;html=1;fillColor=#f5f5f5;gradientColor=#b3b3b3;strokeColor=#666666;" parent="1" vertex="1"><mxGeometry x="430" y="160" width="120" height="60" as="geometry"/></mxCell><mxCell id="WC965Z1jm4pbxt2cNzaj-4" value="服务器" style="rounded=1;whiteSpace=wrap;html=1;fillColor=#f5f5f5;gradientColor=#b3b3b3;strokeColor=#666666;" parent="1" vertex="1"><mxGeometry x="690" y="85" width="120" height="500" as="geometry"/></mxCell><mxCell id="-7a7V4mG0scpUjR3RphD-2" value="2" style="text;html=1;align=center;verticalAlign=middle;resizable=0;points=[];autosize=1;strokeColor=none;fillColor=none;" parent="1" vertex="1"><mxGeometry x="385" y="175" width="30" height="30" as="geometry"/></mxCell><mxCell id="-7a7V4mG0scpUjR3RphD-3" value="3" style="text;html=1;align=center;verticalAlign=middle;resizable=0;points=[];autosize=1;strokeColor=none;fillColor=none;" parent="1" vertex="1"><mxGeometry x="605" y="165" width="30" height="30" as="geometry"/></mxCell><mxCell id="-7a7V4mG0scpUjR3RphD-6" value="" style="endArrow=classic;html=1;rounded=0;exitX=0;exitY=0.25;exitDx=0;exitDy=0;entryX=1.027;entryY=0.867;entryDx=0;entryDy=0;entryPerimeter=0;" parent="1" source="WC965Z1jm4pbxt2cNzaj-4" target="WC965Z1jm4pbxt2cNzaj-3" edge="1"><mxGeometry width="50" height="50" relative="1" as="geometry"><mxPoint x="570" y="270" as="sourcePoint"/><mxPoint x="560" y="210" as="targetPoint"/><Array as="points"><mxPoint x="670" y="210"/><mxPoint x="650" y="210"/></Array></mxGeometry></mxCell><mxCell id="-7a7V4mG0scpUjR3RphD-7" value="4" style="text;html=1;align=center;verticalAlign=middle;resizable=0;points=[];autosize=1;strokeColor=none;fillColor=none;" parent="1" vertex="1"><mxGeometry x="605" y="205" width="30" height="30" as="geometry"/></mxCell><mxCell id="-7a7V4mG0scpUjR3RphD-10" style="edgeStyle=orthogonalEdgeStyle;rounded=0;orthogonalLoop=1;jettySize=auto;html=1;entryX=0.43;entryY=1.067;entryDx=0;entryDy=0;entryPerimeter=0;" parent="1" source="-7a7V4mG0scpUjR3RphD-8" target="WC965Z1jm4pbxt2cNzaj-2" edge="1"><mxGeometry relative="1" as="geometry"/></mxCell><mxCell id="-7a7V4mG0scpUjR3RphD-14" value="6" style="edgeLabel;html=1;align=center;verticalAlign=middle;resizable=0;points=[];" parent="-7a7V4mG0scpUjR3RphD-10" vertex="1" connectable="0"><mxGeometry x="0.1419" relative="1" as="geometry"><mxPoint as="offset"/></mxGeometry></mxCell><mxCell id="-7a7V4mG0scpUjR3RphD-8" value="浏览器引擎(解析html/css)" style="rounded=1;whiteSpace=wrap;html=1;fillColor=#f5f5f5;gradientColor=#b3b3b3;strokeColor=#666666;" parent="1" vertex="1"><mxGeometry x="430" y="270" width="120" height="60" as="geometry"/></mxCell><mxCell id="-7a7V4mG0scpUjR3RphD-11" value="" style="endArrow=classic;html=1;rounded=0;entryX=1;entryY=0.75;entryDx=0;entryDy=0;exitX=0;exitY=0.75;exitDx=0;exitDy=0;" parent="1" source="WC965Z1jm4pbxt2cNzaj-2" target="WC965Z1jm4pbxt2cNzaj-1" edge="1"><mxGeometry width="50" height="50" relative="1" as="geometry"><mxPoint x="180" y="270" as="sourcePoint"/><mxPoint x="230" y="220" as="targetPoint"/></mxGeometry></mxCell><mxCell id="-7a7V4mG0scpUjR3RphD-15" value="7" style="edgeLabel;html=1;align=center;verticalAlign=middle;resizable=0;points=[];" parent="-7a7V4mG0scpUjR3RphD-11" vertex="1" connectable="0"><mxGeometry x="0.3644" y="1" relative="1" as="geometry"><mxPoint as="offset"/></mxGeometry></mxCell><mxCell id="-7a7V4mG0scpUjR3RphD-12" value="浏览器内部就像我们平常写的一个javaweb程序一样,它既有前端层,接口层,业务层,网络层,还有自己的数据库;" style="rounded=1;whiteSpace=wrap;html=1;fillColor=#bac8d3;strokeColor=#23445d;" parent="1" vertex="1"><mxGeometry width="300" height="60" as="geometry"/></mxCell><mxCell id="-7a7V4mG0scpUjR3RphD-13" value="5" style="text;html=1;align=center;verticalAlign=middle;resizable=0;points=[];autosize=1;strokeColor=none;fillColor=none;" parent="1" vertex="1"><mxGeometry x="465" y="225" width="30" height="30" as="geometry"/></mxCell><mxCell id="-7a7V4mG0scpUjR3RphD-17" value="去远端拉取js文件, 之后通过js发起网络请求" style="rounded=1;whiteSpace=wrap;html=1;fillColor=#f5f5f5;gradientColor=#b3b3b3;strokeColor=#666666;" parent="1" vertex="1"><mxGeometry x="30" y="480" width="120" height="60" as="geometry"/></mxCell><mxCell id="kDKD8LUEOCVPmT6dqDyQ-2" value="&lt;p&gt;浏览器内部的组件和它们之间的分工和协作可以大致分为以下几个方面：&lt;/p&gt;&lt;br&gt;&lt;br&gt;&lt;ol style=&quot;direction: ltr; unicode-bidi: embed; margin-top: 0in; margin-bottom: 0in; font-family: 楷体; font-size: 10.5pt;&quot; type=&quot;1&quot;&gt;&lt;br&gt; &lt;li value=&quot;1&quot;&gt;&lt;span style=&quot;font-family: -apple-system; font-size: 10.5pt; background: rgb(244, 246, 248);&quot;&gt;用户界面（UI）组件：这些组件负责显示浏览器的用户界面，包括地址栏、标签页、菜单、按钮等。它们通过接收用户输入和显示相应的信息来与用户进行交互。&lt;/span&gt;&lt;/li&gt;&lt;br&gt; &lt;li&gt;&lt;span&gt;渲染引擎：渲染引擎是浏览器的核心组件之一，负责将网页的HTML、CSS和JavaScript代码转换为可视化的网页。它会解析HTML文档、构建DOM树、处理CSS样式和布局，并最终将网页渲染到屏幕上。&lt;/span&gt;&lt;/li&gt;&lt;br&gt; &lt;li&gt;&lt;span&gt;JavaScript引擎：JavaScript引擎负责解析和执行网页中的JavaScript代码。它会将JavaScript代码转换为可执行的指令，并在运行时处理变量、函数、对象等。&lt;/span&gt;&lt;/li&gt;&lt;br&gt; &lt;li&gt;&lt;span&gt;网络组件：网络组件负责处理浏览器与服务器之间的通信。它支持HTTP、HTTPS等协议，并能发送请求、接收响应、处理Cookie等。&lt;/span&gt;&lt;/li&gt;&lt;br&gt; &lt;li&gt;&lt;span&gt;存储组件：存储组件负责处理浏览器的本地存储。它可以将数据保存在浏览器的缓存、Cookie或本地数据库中，以便在需要时进行访问和检索。&lt;/span&gt;&lt;/li&gt;&lt;br&gt; &lt;li&gt;&lt;span&gt;安全组件：安全组件负责保护用户隐私和安全。它包括对网站的身份验证、访问控制、加密通信等功能。&lt;/span&gt;&lt;/li&gt;&lt;br&gt;&lt;/ol&gt;&lt;br&gt;&lt;br&gt;&lt;p&gt;&lt;span style=&quot;background:#F4F6F8&quot;&gt;这些组件之间通过接口进行通信和协作。例如，渲染引擎会向JavaScript引擎发送请求执行JavaScript代码的指令，JavaScript引擎会将执行结果返回给渲染引擎，以便更新网页的显示。网络组件会与渲染引擎和存储组件进行交互，以加载和显示网页内容，并将用户输入的数据发送给服务器。&lt;/span&gt;&lt;/p&gt;&lt;br&gt;&lt;br&gt;&lt;p&gt;总体而言，浏览器内部的组件之间通过协作实现了网页的加载、解析、渲染和交互等功能，以提供给用户一个完整的浏览体验。&lt;/p&gt;" style="rounded=0;whiteSpace=wrap;html=1;align=left;" vertex="1" parent="1"><mxGeometry x="140" y="670" width="1360" height="480" as="geometry"/></mxCell></root></mxGraphModel></diagram><diagram id="AYfpxLjv1Q7M_yiyJdl5" name="java对象内存分布"><mxGraphModel dx="653" dy="523" grid="1" gridSize="10" guides="1" tooltips="1" connect="1" arrows="1" fold="1" page="1" pageScale="1" pageWidth="827" pageHeight="1169" math="0" shadow="0"><root><mxCell id="0"/><mxCell id="1" parent="0"/><mxCell id="uNlNFq3qPtgOJnfPdunh-1" value="house(房子)" style="swimlane;childLayout=stackLayout;horizontal=1;startSize=30;horizontalStack=0;rounded=1;fontSize=14;fontStyle=0;strokeWidth=2;resizeParent=0;resizeLast=1;shadow=0;dashed=0;align=center;" parent="1" vertex="1"><mxGeometry x="120" y="80" width="240" height="120" as="geometry"/></mxCell><mxCell id="uNlNFq3qPtgOJnfPdunh-2" value="String    address(位置)&#10;LocalDateTime   localDateTime( 建造年份) &#10;BigDecimal price(价格)&#10;&#10;Householder householder(户主)&#10;" style="align=left;strokeColor=none;fillColor=none;spacingLeft=4;fontSize=12;verticalAlign=top;resizable=0;rotatable=0;part=1;" parent="uNlNFq3qPtgOJnfPdunh-1" vertex="1"><mxGeometry y="30" width="240" height="90" as="geometry"/></mxCell><mxCell id="uNlNFq3qPtgOJnfPdunh-3" value="Householder(户主)" style="swimlane;childLayout=stackLayout;horizontal=1;startSize=30;horizontalStack=0;rounded=1;fontSize=14;fontStyle=0;strokeWidth=2;resizeParent=0;resizeLast=1;shadow=0;dashed=0;align=center;" parent="1" vertex="1"><mxGeometry x="120" y="310" width="200" height="80" as="geometry"/></mxCell><mxCell id="uNlNFq3qPtgOJnfPdunh-4" value="String name&#10;int       age&#10;" style="align=left;strokeColor=none;fillColor=none;spacingLeft=4;fontSize=12;verticalAlign=top;resizable=0;rotatable=0;part=1;" parent="uNlNFq3qPtgOJnfPdunh-3" vertex="1"><mxGeometry y="30" width="200" height="50" as="geometry"/></mxCell><mxCell id="uNlNFq3qPtgOJnfPdunh-12" style="edgeStyle=orthogonalEdgeStyle;rounded=0;orthogonalLoop=1;jettySize=auto;html=1;entryX=0;entryY=0.5;entryDx=0;entryDy=0;" parent="1" source="uNlNFq3qPtgOJnfPdunh-5" target="uNlNFq3qPtgOJnfPdunh-7" edge="1"><mxGeometry relative="1" as="geometry"/></mxCell><mxCell id="uNlNFq3qPtgOJnfPdunh-5" value="数字" style="rounded=1;whiteSpace=wrap;html=1;fillColor=#f5f5f5;gradientColor=#b3b3b3;strokeColor=#666666;" parent="1" vertex="1"><mxGeometry x="520" y="160" width="120" height="60" as="geometry"/></mxCell><mxCell id="uNlNFq3qPtgOJnfPdunh-13" style="edgeStyle=orthogonalEdgeStyle;rounded=0;orthogonalLoop=1;jettySize=auto;html=1;entryX=0;entryY=0.5;entryDx=0;entryDy=0;" parent="1" source="uNlNFq3qPtgOJnfPdunh-6" target="uNlNFq3qPtgOJnfPdunh-7" edge="1"><mxGeometry relative="1" as="geometry"/></mxCell><mxCell id="uNlNFq3qPtgOJnfPdunh-6" value="字符串" style="rounded=1;whiteSpace=wrap;html=1;fillColor=#f5f5f5;gradientColor=#b3b3b3;strokeColor=#666666;" parent="1" vertex="1"><mxGeometry x="520" y="220" width="120" height="60" as="geometry"/></mxCell><mxCell id="uNlNFq3qPtgOJnfPdunh-7" value="时间" style="rounded=1;whiteSpace=wrap;html=1;fillColor=#f5f5f5;gradientColor=#b3b3b3;strokeColor=#666666;" parent="1" vertex="1"><mxGeometry x="690" y="190" width="120" height="60" as="geometry"/></mxCell><mxCell id="uNlNFq3qPtgOJnfPdunh-10" value="" style="endArrow=classic;html=1;rounded=0;entryX=0.433;entryY=0;entryDx=0;entryDy=0;entryPerimeter=0;" parent="1" source="uNlNFq3qPtgOJnfPdunh-2" target="uNlNFq3qPtgOJnfPdunh-3" edge="1"><mxGeometry width="50" height="50" relative="1" as="geometry"><mxPoint x="300" y="240" as="sourcePoint"/><mxPoint x="350" y="190" as="targetPoint"/></mxGeometry></mxCell><mxCell id="uNlNFq3qPtgOJnfPdunh-11" value="引用,保存是此对象的地址" style="edgeLabel;html=1;align=center;verticalAlign=middle;resizable=0;points=[];" parent="uNlNFq3qPtgOJnfPdunh-10" vertex="1" connectable="0"><mxGeometry x="-0.1409" y="-3" relative="1" as="geometry"><mxPoint as="offset"/></mxGeometry></mxCell><mxCell id="uNlNFq3qPtgOJnfPdunh-15" value="任何javaBean都是由数字和字符串组成的" style="ellipse;whiteSpace=wrap;html=1;fillColor=#e1d5e7;strokeColor=#9673a6;" parent="1" vertex="1"><mxGeometry x="520" y="60" width="120" height="80" as="geometry"/></mxCell></root></mxGraphModel></diagram></mxfile>